<svg width="135" height="195" viewBox="0 0 135 195" fill="none" xmlns="http://www.w3.org/2000/svg">
<path d="M90.1617 75.8117C90.9254 78.0896 93.4103 79.3134 95.6892 78.55L101.702 76.5266C103.981 75.7633 105.205 73.2794 104.441 71.0016C103.677 68.7237 101.192 67.5 98.9136 68.2633L92.9012 70.2867C90.6223 71.05 89.398 73.5339 90.1617 75.8117Z" fill="#FFC2B0"/>
<path d="M95.7004 77.8715C95.7004 77.8715 57.7715 96.4701 49.2135 67.8877C40.6556 39.3053 42.6678 50.5977 42.6678 50.5977L57.4563 49.5799C57.4563 49.5799 57.0199 57.9523 64.6081 66.7609C68.2568 71.0016 90.2335 69.3174 90.2335 69.3174L95.7004 77.8715Z" fill="#DB39AF"/>
<path opacity="0.4" d="M50.7556 191.983C78.5396 191.492 100.865 179.91 100.621 166.114C100.376 152.319 77.6548 141.534 49.8708 142.026C22.0868 142.517 -0.238449 154.099 0.005889 167.895C0.250227 181.69 22.9717 192.475 50.7556 191.983Z" fill="#A8C4E5"/>
<path d="M92.4038 144.33C92.4038 144.33 90.6098 164.019 40.0621 174.584L37.4316 169.725L82.6458 131.571L92.4038 144.33Z" fill="#FFC2B0"/>
<path d="M40.8739 175.384L32.4977 178.437C27.3217 182.375 25.0671 184.956 22.1579 184.059L21.3336 183.805C18.4244 182.908 18.1456 180.218 20.7275 177.831L31.1037 164.867C33.6857 162.48 37.8071 162.104 40.6557 163.643C40.6557 163.643 42.3648 164.6 42.583 170.222C42.7042 173.409 42.9346 173.469 40.8739 175.384Z" fill="#2C1F9C"/>
<path d="M104.562 150.23C104.562 150.23 118.938 164.697 49.6622 186.204L45.9893 177.177L91.2034 147.298L104.562 150.23Z" fill="#FFC2B0"/>
<path d="M25.7464 114.414L85.9309 122.823C85.9309 122.823 125.096 149.164 90.8766 159.851L43.3714 171.664C33.177 174.305 24.11 173.409 18.0976 164.006C12.8004 155.719 14.0974 137.738 18.74 130.117L25.7464 114.414Z" fill="#2C1F9C"/>
<path d="M75.2516 33.5258C72.9484 42.9281 66.136 45.8118 60.0388 39.9717C53.9415 34.1316 50.8626 21.773 53.1779 12.3828C55.481 2.98058 62.2934 0.0968942 68.3907 5.93696C74.4758 11.777 77.5547 24.1236 75.2516 33.5258Z" fill="#FFC2B0"/>
<path d="M84.2459 34.9192C79.5184 43.3643 69.0331 44.3578 64.7177 37.1002C60.4024 29.8425 60.7297 17.1204 65.4571 8.67528C70.1846 0.230205 77.5183 -0.7391 81.8457 6.51857C86.1611 13.7762 88.9733 26.4741 84.2459 34.9192Z" fill="#FFC2B0"/>
<path d="M58.6939 56.8376L57.7484 56.462C54.5361 55.1898 52.9603 51.5307 54.2331 48.3199L61.4092 30.2302C62.682 27.0194 66.3427 25.4443 69.555 26.7165L70.5005 27.0921C73.7127 28.3643 75.2886 32.0234 74.0158 35.2342L69.6762 53.6268C68.4034 56.8376 61.9062 58.1099 58.6939 56.8376Z" fill="#FFC2B0"/>
<path d="M54.2085 29.2367C54.2085 29.2367 51.6023 35.2464 62.4271 38.4329C71.082 40.9774 72.2093 24.5113 81.24 25.1413C91.1799 25.832 95.6892 14.4184 92.986 9.00241C90.2829 3.5743 80.3067 -1.27223 71.882 0.302895C63.4574 1.8659 46.8506 0.557338 54.2085 29.2367Z" fill="#4432DB"/>
<path d="M80.1251 30.0606C78.9735 32.1082 76.3795 32.8473 74.3188 31.6963C72.2702 30.5452 71.5308 27.9523 72.6823 25.8926C73.8339 23.8449 76.4279 23.1058 78.4886 24.2569C80.5372 25.4079 81.2766 28.0008 80.1251 30.0606Z" fill="#FFC2B0"/>
<path d="M22.3164 122.763C24.462 105.642 23.8801 91.4297 27.0681 73.1704C32.3169 40.2746 35.1412 32.4717 51.7359 40.2504L56.427 42.3344C58.6817 43.34 60.8272 44.588 62.8152 46.042C83.8828 61.5024 89.4224 66.1308 86.2344 79.6648C82.7434 102.25 71.4944 105.182 73.9308 125.84C66.7063 140.695 25.7832 134.758 22.3164 122.763Z" fill="#FF80DB"/>
<path d="M71.8091 42.5767L70.7061 40.2867C73.0698 42.4798 77.8579 41.1228 75.979 41.4378C75.979 41.4499 74.0032 42.6737 71.8091 42.5767Z" fill="#F09A82"/>
<path d="M67.1416 13.4854C65.9537 18.55 61.4444 21.8336 57.0806 20.8037C52.7167 19.7738 50.1469 14.8425 51.3349 9.76572C52.5228 4.7011 57.0321 1.41757 61.3959 2.44746C65.7597 3.47735 68.3296 8.4208 67.1416 13.4854Z" fill="#2C1F9C"/>
<path d="M57.1658 9.39016C57.2022 4.91924 51.0564 5.75527 48.9836 10.4806C48.3048 12.0194 47.7472 14.0065 47.3835 16.5509C45.3592 30.8482 22.9824 39.0751 35.5648 56.874C35.5648 56.874 26.7402 76.3207 45.6501 74.2246C55.3233 73.1583 53.3596 49.4346 53.3596 49.4346C53.3596 49.4346 56.3173 36.773 59.3235 26.5226C60.7296 21.7125 60.5599 17.0598 58.4507 13.8974C57.5779 12.6131 57.1537 11.0986 57.1658 9.39016Z" fill="#4432DB"/>
<path d="M56.6569 40.0323C54.8265 39.269 52.8021 40.6624 52.8264 42.6494C52.8506 44.8546 53.7476 47.6292 57.4569 49.58C62.5844 52.2819 68.7059 52.2456 71.6878 52.0154C72.3909 51.9669 72.6697 51.0824 72.1363 50.622C69.215 48.1139 62.1844 42.3344 56.6569 40.0323Z" fill="#2C1F9C"/>
<path d="M50.1112 186.143L41.735 189.196C36.559 193.134 34.3044 195.715 31.3952 194.818L30.5709 194.564C27.6617 193.667 27.3829 190.977 29.9648 188.59L40.341 175.626C42.923 173.239 47.0444 172.864 49.893 174.402C49.893 174.402 51.6021 175.359 51.8203 180.981C51.9537 184.168 52.1719 184.229 50.1112 186.143Z" fill="#2C1F9C"/>
<path d="M120.501 109.023C121.265 111.3 123.75 112.524 126.029 111.761L132.041 109.737C134.32 108.974 135.544 106.49 134.781 104.212C134.017 101.935 131.532 100.711 129.253 101.474L123.241 103.498C120.974 104.261 119.738 106.745 120.501 109.023Z" fill="#FFC2B0"/>
<path d="M126.029 111.761C126.029 111.761 88.1004 130.359 79.5425 101.777C70.9845 73.1946 68.5723 64.7253 68.5723 64.7253L86.767 70.1898C86.767 70.1898 87.361 91.8417 94.9492 100.65C98.5979 104.891 120.575 103.207 120.575 103.207L126.029 111.761Z" fill="#FF80DB"/>
</svg>
