<svg width="230" height="253" viewBox="0 0 230 253" fill="none" xmlns="http://www.w3.org/2000/svg">
<g clip-path="url(#clip0)">
<path opacity="0.39" d="M43.3068 252.878C62.8527 252.773 78.6481 243.537 78.5869 232.251C78.5257 220.965 62.6311 211.902 43.0852 212.008C23.5394 212.114 7.74395 221.349 7.80515 232.635C7.86634 243.921 23.761 252.984 43.3068 252.878Z" fill="#A7BCF5"/>
<path d="M40.0671 223.221L40.7735 222.853C41.1772 222.641 41.3336 222.141 41.1217 221.738C40.9097 221.334 40.4102 221.178 40.0065 221.39L39.3001 221.758C38.8965 221.97 38.7401 222.469 38.952 222.873C39.1589 223.277 39.6634 223.433 40.0671 223.221Z" fill="#514677"/>
<path d="M41.2224 222.091V218.342C41.2224 217.888 40.849 217.515 40.3949 217.515C39.9408 217.515 39.5674 217.888 39.5674 218.342V222.091C39.5674 222.545 39.9408 222.919 40.3949 222.919C40.8541 222.919 41.2224 222.545 41.2224 222.091Z" fill="#213696"/>
<path d="M37.0952 212.05C37.9328 216.304 38.8562 222.626 38.8562 222.626L40.3951 222.918L40.1529 218.498C40.3396 217.837 41.4699 218.554 41.9442 219.255C44.7799 223.388 42.9685 225.981 45.7436 227.878C45.7436 227.878 52.2022 230.81 58.6961 229.604C58.6961 229.604 61.7538 228.469 60.4368 226.602C57.8433 222.934 48.2816 212.726 46.4147 210.324L45.9051 210.163L42.4841 204.673C41.1924 204.3 38.7805 206.222 37.8622 207.993C37.0952 208.816 36.7471 210.284 37.0952 212.05Z" fill="#213696"/>
<path d="M43.3621 204.199L46.2381 206.58C46.2381 206.58 53.4536 217.878 54.8159 220.133C56.4003 222.757 46.9143 227.273 40.3952 211.848C35.6421 203.709 43.3621 204.199 43.3621 204.199Z" fill="#F7AC94"/>
<path d="M45.7735 115.848C46.0107 131.828 45.8996 147.833 44.8804 163.792C44.5222 169.403 44.0428 175.009 43.4171 180.6C43.291 181.745 43.1548 182.891 43.0135 184.041C42.9378 184.672 42.8571 185.307 42.7763 185.938C42.7259 186.342 42.4988 188.007 42.6704 186.771C42.3676 188.961 42.0548 191.15 41.7167 193.335C41.0154 197.876 40.2333 202.407 39.4663 206.939C38.9668 209.89 40.2484 212.913 43.3415 213.765C46.0056 214.497 49.6638 212.862 50.1684 209.89C53.7559 188.723 56.193 167.637 56.7631 146.147C57.0306 136.051 57.0255 125.949 56.8742 115.853C56.7682 108.708 45.6675 108.688 45.7735 115.848Z" fill="#F7AC94"/>
<path d="M31.2424 126.08C34.4818 142.055 35.7483 158.338 34.5171 174.61C33.4777 188.375 30.5058 201.863 26.7063 215.108C24.7334 221.985 35.4405 224.922 37.4083 218.059C41.4803 203.856 44.4976 189.364 45.6127 174.61C46.9145 157.364 45.3756 140.057 41.9394 123.134C41.344 120.197 37.8625 118.502 35.1125 119.259C32.0598 120.096 30.647 123.134 31.2424 126.08Z" fill="#FFC2B0"/>
<path d="M27.8669 229.791L28.5733 229.422C28.977 229.211 29.1334 228.711 28.9215 228.307C28.7095 227.904 28.21 227.747 27.8063 227.959L27.0999 228.328C26.6963 228.539 26.5399 229.039 26.7518 229.443C26.9587 229.846 27.4632 230.003 27.8669 229.791Z" fill="#213696"/>
<path d="M29.0222 228.661V224.912C29.0222 224.457 28.6488 224.084 28.1947 224.084C27.7406 224.084 27.3672 224.457 27.3672 224.912V228.661C27.3672 229.115 27.7406 229.488 28.1947 229.488C28.6488 229.488 29.0222 229.115 29.0222 228.661Z" fill="#213696"/>
<path d="M24.895 218.62C25.7326 222.873 26.656 229.195 26.656 229.195L28.1949 229.488L27.9527 225.068C28.1394 224.407 29.2697 225.123 29.744 225.825C32.5797 229.957 30.7683 232.551 33.5434 234.448C33.5434 234.448 40.002 237.38 46.4959 236.174C46.4959 236.174 49.5536 235.038 48.2367 233.171C45.6431 229.503 36.0815 219.296 34.2145 216.894L33.7049 216.732L30.2839 211.243C28.9922 210.869 26.5803 212.792 25.662 214.563C24.895 215.385 24.5469 216.854 24.895 218.62Z" fill="#213696"/>
<path d="M31.1619 210.768L34.0379 213.15C34.0379 213.15 41.2534 224.447 42.6157 226.703C44.2001 229.327 34.7141 233.843 28.195 218.418C23.4419 210.279 31.1619 210.768 31.1619 210.768Z" fill="#FFC2B0"/>
<path d="M57.3692 108.496C57.3692 108.496 51.6877 90.9973 41.4701 96.8958C31.2524 102.794 18.6633 109.717 19.9903 128.094C20.2577 131.812 21.0297 134.739 22.1751 136.974L29.2745 172.784C29.1433 175.342 30.6267 177.042 33.5634 177.729C59.0343 183.703 57.6669 169.378 60.1948 165.316C60.5985 164.665 60.8104 163.944 60.8104 163.197L57.3692 108.496Z" fill="#FF73B4"/>
<path d="M19.9856 128.089C20.253 131.807 21.025 134.734 22.1704 136.969L29.2698 172.779C29.1386 175.337 30.6221 177.037 33.5587 177.724C33.5587 177.724 25.3139 114.985 27.8368 110.923C28.2405 110.272 18.6586 109.712 19.9856 128.089Z" fill="#E366A0"/>
<path d="M50.1992 58.0637C52.389 72.2473 54.4477 86.2846 58.7871 100.009C60.5833 105.68 69.2822 102.542 67.4859 96.8655C63.3938 83.9232 61.4815 70.7286 59.4178 57.3472C58.5196 51.4942 49.2859 52.1653 50.1992 58.0637Z" fill="#E69F35"/>
<path d="M55.1996 61.5453L58.1211 71.3694C58.1211 71.3694 56.1785 102.335 55.5982 105.085C55.5982 105.085 44.4521 117.089 24.3599 105.529L17.2959 74.7601L55.1996 61.5453Z" fill="#FFC248"/>
<path d="M16.9582 79.3114C16.0953 78.8017 12.8257 79.6595 12.8257 79.6595C12.5835 74.5482 9.45008 71.5863 17.7604 63.17C19.0168 61.8934 35.5215 54.8647 45.3001 53.028C50.0381 52.1349 52.899 51.1763 54.4733 55.2835C55.3967 57.6853 57.6875 65.8089 57.6875 65.8089C57.4402 75.2142 53.9788 62.9379 52.8889 68.1451C52.9243 68.019 52.9646 67.8928 52.9949 67.7667C52.9949 67.7667 51.1381 76.5665 49.7253 83.3833C48.8473 87.6369 48.2166 90.7097 48.151 91.1386C48.1459 91.1588 48.1459 91.1891 48.1459 91.1941L30.4606 104.046L22.786 89.1001L16.9582 79.3114Z" fill="#FFC248"/>
<path d="M55.2502 61.7825C55.2502 61.7825 62.5262 66.6012 62.2941 75.6835C62.062 84.7659 53.8223 90.5332 53.8223 90.5332L55.2502 61.7825Z" fill="#FFC248"/>
<path d="M58.3278 86.0525L52.3486 88.7116L57.016 90.523L58.3278 86.0525Z" fill="#E69F35"/>
<path d="M32.0648 108.784L30.3695 96.7495L38.3922 92.5868C38.3922 92.5868 25.2682 98.0463 23.149 81.4256C23.149 81.4256 20.3032 74.8611 12.0029 81.1228L24.365 105.529C26.903 107.013 29.4713 108.082 32.0648 108.784Z" fill="#E69F35"/>
<path d="M43.3978 53.1592C43.3978 53.1592 51.9605 62.0044 44.5331 68.2713C37.1058 74.5381 23.8809 60.1274 23.8809 60.1274C30.5211 55.9647 37.4792 53.5478 43.3978 53.1592Z" fill="#FFC2B0"/>
<path d="M57.9346 104.717C58.1112 105.443 57.874 106.2 57.3139 106.695C55.2906 108.476 49.8159 112.336 40.8295 111.902C33.1347 111.528 28.5632 110.116 26.3431 109.202C25.3895 108.809 24.8798 107.764 25.1775 106.775L25.3592 106.17C25.6872 105.08 26.8527 104.48 27.9275 104.858C32.07 106.316 41.8992 109.238 48.5343 106.811C51.592 105.691 53.5397 104.58 54.7709 103.612C55.9163 102.724 57.5914 103.309 57.9346 104.717Z" fill="#213696"/>
<path d="M46.3696 113.002L51.5011 111.867C53.2066 111.488 54.5689 109.783 54.5336 108.067C54.4933 106.357 53.0704 105.262 51.3649 105.64L46.2334 106.775C44.5279 107.154 43.1655 108.859 43.2009 110.575C43.2362 112.285 44.6641 113.38 46.3696 113.002Z" fill="white"/>
<path d="M47.333 111.584L50.4866 110.888C51.5361 110.656 52.3737 109.606 52.3485 108.551C52.3232 107.497 51.4503 106.826 50.4008 107.058L47.2472 107.754C46.1977 107.986 45.3601 109.036 45.3853 110.09C45.4055 111.145 46.2835 111.816 47.333 111.584Z" fill="#213696"/>
<path d="M40.5169 131.368L3.48109 121.64C1.78572 121.196 0.529325 119.112 0.675651 116.993L2.21461 95.16C2.36598 93.0408 3.85952 91.6785 5.55994 92.1276L42.5957 101.856C44.2911 102.3 45.5475 104.384 45.4012 106.503L43.8622 128.336C43.7109 130.455 42.2123 131.812 40.5169 131.368Z" fill="#6588E0"/>
<path d="M38.3923 104.707V104.681L6.95726 95.9321L5.01465 118.577L8.41044 119.521L8.40539 119.546L39.8404 128.29L41.783 105.65L38.3923 104.707Z" fill="white"/>
<path d="M14.4651 67.3681C12.5982 70.4965 10.7313 73.6198 8.8593 76.7482C6.7199 80.3256 4.30299 83.8627 2.80945 87.7731C-0.122134 95.4628 1.18976 104.525 6.11946 111.09C10.4083 116.796 15.1917 122.003 19.1829 127.952C22.4828 132.872 30.5005 128.245 27.1703 123.285C23.3255 117.553 18.9205 112.346 14.5862 106.992C10.4891 101.931 9.1015 95.2005 12.2198 89.2313C15.2977 83.3429 19.0416 77.7422 22.4475 72.0405C25.5103 66.914 17.5178 62.2568 14.4651 67.3681Z" fill="#FFC2B0"/>
<path d="M14.021 66.475C8.96515 73.0294 4.10105 78.3678 1.63367 86.4612C-0.944705 94.9381 0.957544 102.976 4.85286 110.474C8.1982 116.907 19.203 111.634 15.8627 105.206C12.9412 99.5903 10.6656 93.8129 12.9261 88.202C15.3379 82.2177 21.0649 78.5394 25.157 73.2414C27.0188 70.8295 25.4345 64.6535 23.0478 63.2609C20.1415 61.5604 17.2049 62.8673 15.343 65.2792L14.021 66.475Z" fill="#FFC248"/>
<path d="M21.2973 136.636C24.3247 136.944 27.0545 134.724 27.3622 131.696L27.9425 126.015C28.2503 122.987 26.0302 120.258 23.0027 119.95C19.9753 119.642 17.2506 121.862 16.9377 124.89L16.3575 130.571C16.0446 133.599 18.2698 136.323 21.2973 136.636Z" fill="#FFC2B0"/>
<path d="M66.8451 58.205C65.9015 65.9805 65.73 73.8267 64.8469 81.6072C64.4837 84.8113 63.9841 88.0456 62.9901 91.1235C62.5108 92.6069 62.6369 92.4959 61.6833 93.8987C61.5268 94.1257 61.6934 93.6615 61.7489 93.7977C61.6378 93.9239 61.5218 94.0399 61.3956 94.156C61.542 94.05 61.6883 93.9441 61.8346 93.8331C61.8397 93.8583 61.32 94.1661 61.3099 94.1509C61.2796 94.1207 62.3291 93.8482 61.2645 94.0601C55.4316 95.2307 57.8989 104.152 63.7217 102.981C71.1541 101.487 72.7587 91.4918 73.6165 85.3562C74.8779 76.3445 74.999 67.2319 76.0939 58.205C76.3967 55.7225 73.7527 53.5781 71.467 53.5781C68.7221 53.5781 67.1478 55.7124 66.8451 58.205Z" fill="#FFC2B0"/>
<path d="M71.4419 63.5182C74.429 63.5182 76.8712 61.076 76.8712 58.089C76.8712 55.1019 74.429 52.6597 71.4419 52.6597C68.4548 52.6597 66.0127 55.1019 66.0127 58.089C66.0127 61.071 68.4548 63.5182 71.4419 63.5182Z" fill="#FFC2B0"/>
<path d="M69.1259 60.1224H69.7465C70.4075 60.1224 70.9524 59.5774 70.9524 58.9164V45.6259C70.9524 44.9649 70.4075 44.42 69.7465 44.42H69.1259C68.4649 44.42 67.9199 44.9649 67.9199 45.6259V58.9164C67.9199 59.5825 68.4598 60.1224 69.1259 60.1224Z" fill="#FFC2B0"/>
<path d="M43.7405 53.4267C43.7405 53.4267 52.7168 61.4999 44.8505 68.3672C36.9842 75.2395 23.6836 60.6522 23.6836 60.6522" stroke="white" stroke-width="5.0767" stroke-miterlimit="10" stroke-linecap="round" stroke-linejoin="round"/>
<path d="M41.4191 56.1867L44.8149 40.7114L34.3449 43.6481L31.5395 55.7024C30.4193 59.305 38.7499 64.0783 41.4191 56.1867Z" fill="#FFC2B0"/>
<path d="M49.7244 24.4187C50.5771 28.092 53.0193 30.9479 54.3211 34.4244C55.2243 36.8362 54.8105 38.1027 53.6449 40.2219C52.6963 41.9526 52.3986 43.8549 52.5954 45.8026C52.772 47.5887 55.5926 47.6089 55.411 45.8026C55.2646 44.3292 55.3706 42.9921 56.077 41.6448C56.4756 40.8829 57.0912 40.2775 57.404 39.4752C58.0297 37.8757 57.7471 35.9532 57.2627 34.3537C56.1224 30.5745 53.3371 27.547 52.439 23.6719C52.0303 21.9059 49.3157 22.6526 49.7244 24.4187Z" fill="#915151"/>
<path d="M32.9378 34.6349C36.3596 30.3812 35.6851 24.1589 31.4314 20.7372C27.1776 17.3154 20.9554 17.9898 17.5336 22.2436C14.1118 26.4973 14.7862 32.7196 19.04 36.1414C23.2937 39.5631 29.516 38.8887 32.9378 34.6349Z" fill="#915151"/>
<path d="M42.0904 54.0574L45.4357 53.9363C50.5874 53.7496 54.6492 49.38 54.4625 44.2333L53.847 27.2241C53.6603 22.0724 49.2907 18.0105 44.144 18.1972L40.7987 18.3183C35.6469 18.505 31.5851 22.8746 31.7718 28.0213L32.3874 45.0305C32.5741 50.1822 36.9387 54.2441 42.0904 54.0574Z" fill="#FFC2B0"/>
<path d="M38.1553 32.5625C41.6974 27.5067 49.2711 32.7139 53.0352 30.9479C57.1222 29.0355 55.3966 24.8173 52.3036 21.5325C50.6435 19.7665 48.5899 18.3284 44.6037 17.1275C33.4476 13.7772 22.8616 19.1358 23.3107 31.4575C23.3107 31.4575 23.4923 48.3658 33.4779 50.1671L33.9421 47.6594C33.9421 47.6594 30.0568 42.8861 35.814 38.8344C37.1562 37.8908 35.9755 37.3862 35.7081 35.3528C35.4306 33.2941 36.9594 34.2629 38.1553 32.5625Z" fill="#915151"/>
<path d="M30.5308 45.525C32.1152 46.6654 33.7954 46.1154 34.2899 44.2989C34.7844 42.4824 33.8963 40.0807 32.312 38.9403C30.7276 37.8 29.0474 38.35 28.5529 40.1664C28.0584 41.988 28.9464 44.3847 30.5308 45.525Z" fill="#FFC2B0"/>
<path d="M34.7538 30.5341C35.001 34.9642 35.0666 40.3329 33.1947 44.4402C32.2006 46.625 30.1823 48.1891 29.3548 50.4749C28.3558 53.245 29.9755 55.2683 30.3589 57.9426C30.6112 59.7288 33.3258 58.9669 33.0736 57.1958C32.8768 55.8284 32.1098 54.678 31.8727 53.3409C31.5699 51.6203 32.5034 50.3538 33.4621 49.057C34.8042 47.2405 35.8941 45.6562 36.4996 43.4562C37.64 39.3288 37.8065 34.7826 37.5643 30.529C37.4684 28.7327 34.6529 28.7226 34.7538 30.5341Z" fill="#915151"/>
<path d="M42.1714 54.451C40.8747 54.4308 37.7968 53.3813 36.5908 52.4377C36.5908 52.4377 38.5536 55.8487 41.3691 56.8175L42.1714 54.451Z" fill="#EA8A6C"/>
<path opacity="0.39" d="M184.697 252.878C204.242 252.773 220.038 243.537 219.977 232.251C219.915 220.965 204.021 211.902 184.475 212.008C164.929 212.114 149.134 221.349 149.195 232.635C149.256 243.921 165.151 252.984 184.697 252.878Z" fill="#A7BCF5"/>
<path d="M119.392 83.8677C124.054 87.6116 130.24 89.7813 135.781 91.8147C141.709 93.9895 148.768 96.805 155.222 96.1036C160.813 95.4981 160.384 86.7286 154.758 87.3391C149.904 87.8639 143.824 85.4874 139.05 83.7365C136.114 82.6567 133.212 81.4558 130.377 80.1187C129.282 79.604 128.192 79.0692 127.132 78.4889C126.703 78.2517 126.274 78.0096 125.851 77.7573C125.614 77.6109 125.376 77.4646 125.144 77.3082C125.568 77.6008 125.608 77.616 125.255 77.3486C120.865 73.8165 114.972 80.3256 119.392 83.8677Z" fill="#FFC2B0"/>
<path d="M128.645 78.832L134.605 80.81L129.407 90.4373L124.321 87.6873L128.645 78.832Z" fill="#DBEFFF"/>
<path d="M132.032 79.4224C134.242 80.2499 143.521 81.1934 150.469 84.0745C157.361 72.7822 157.326 51.3882 162.594 41.4279C165.813 35.3477 175.778 39.4903 172.524 45.6411C169.512 51.3327 167.539 57.1908 166.787 63.5938C166.156 68.9373 166.272 74.3161 166.02 79.6797C165.788 84.6044 163.3 86.9456 161.782 91.6533C160.782 94.7463 158.764 97.0774 155.187 97.582C147.956 98.5912 127.541 91.4363 127.299 90.8409L132.032 79.4224Z" fill="#213696"/>
<path d="M199.78 53.2551L176.438 43.0123L179.32 33.2538C185.299 33.1428 196.031 39.1674 201.067 42.5884L199.78 53.2551Z" fill="#213696"/>
<path d="M188.165 111.392C183.245 125.959 186.036 148.413 186.515 163.646C186.964 177.996 191.894 189.97 193.463 204.229C194.003 209.149 194.714 214.154 194.608 219.114C194.417 227.899 208.07 228.045 208.257 219.255C208.479 208.937 206.385 198.391 205.346 188.153C203.802 172.94 202.692 157.566 203.686 142.282C204.2 134.345 203.817 133.886 203.665 125.813C203.433 113.315 197.545 107.265 194.739 115.565L188.165 111.392Z" fill="#213696"/>
<path d="M165.233 111.044C162.17 122.145 160.772 133.679 159.612 145.113C158.915 151.99 157.81 158.908 158.497 165.811C159.803 179.005 162.251 192.407 162.145 205.692C162.074 214.477 175.728 214.487 175.793 205.692C175.894 192.578 173.508 179.333 172.196 166.31C171.535 159.746 179.073 136.414 179.719 129.85C180.779 119.052 175.501 125.152 178.397 114.672C180.733 106.195 167.569 102.572 165.233 111.044Z" fill="#213696"/>
<path d="M171.434 133.705L172.403 133.518C173.624 134.89 171.081 129.774 172.655 130.723C175.93 132.7 189.402 142.297 193.231 142.363C197.853 142.439 199.559 145.083 203 141.995C206.265 139.068 207.415 129.093 205.952 125.379C205.508 124.254 202.536 122.21 202.051 121.1C201.532 119.899 205.922 120.091 204.877 119.299C196.713 113.118 180.647 97.8192 169.239 102.714C156.049 108.365 165.581 127.145 171.434 133.705Z" fill="#213696"/>
<path d="M167.019 39.561C164.662 42.6036 164.94 44.4806 165.056 48.6282C165.167 52.685 167.917 56.1968 171.827 57.2968L211.749 68.4933C211.749 68.4933 214.045 53.1341 206.169 48.5121C201.925 46.0195 195.345 42.0384 190.179 38.8899C182.58 34.273 172.463 32.5423 167.019 39.561Z" fill="#DBEFFF"/>
<path d="M164.909 111.725C166.09 113.259 167.604 70.1886 165.257 42.9416L210.195 64.3204C209.968 84.8566 203.973 100.498 206.431 125.525L164.909 111.725Z" fill="#DBEFFF"/>
<path d="M195.028 128.341C183.927 124.294 173.351 119.859 167.135 112.24C164.082 110.479 164.471 107.371 167.993 105.337C171.515 103.304 176.898 103.082 179.946 104.843C179.946 104.838 198.075 130.102 195.028 128.341Z" fill="#DBEFFF"/>
<path d="M181.328 43.9205L177.241 27.774L188.912 30.751L192.232 43.9356C192.974 46.08 184.457 52.14 181.328 43.9205Z" fill="#FFC2B0"/>
<path d="M183.447 125.99C187.07 127.64 190.92 129.123 194.846 130.551C197.898 132.312 204.998 126.121 204.998 126.121C202.54 101.094 209.973 84.8516 210.2 64.3154L208.636 63.5737C207.773 87.4148 203.928 125.066 183.447 125.99Z" fill="#F1A32F"/>
<path d="M200.951 42.2655C200.951 42.2655 183.75 57.1606 181.166 91.1689C180.102 105.201 179.703 110.519 180.223 117.715C180.475 121.186 180.314 126.792 183.447 128.427C188.346 130.985 195.688 133.639 203.05 132.413C206.789 131.792 208.343 127.978 208.459 125.52C206.627 104.808 208.751 85.437 212.082 64.9613L209.892 51.8474C209.74 50.9291 209.392 49.0924 208.716 48.3053L200.951 42.2655Z" fill="#3A62CF"/>
<path d="M178.402 36.7707C178.402 36.7707 163.784 49.4254 173.881 120.091C174.158 122.034 171.817 122.957 170.016 122.064C168.093 121.11 165.454 118.149 163.87 117.099C162.422 116.14 161.7 114.102 161.776 112.422C162.306 100.806 161.776 54.9455 161.776 54.9455C161.776 54.9455 161.821 33.385 177.826 34.3033C182.827 34.5909 178.402 36.7707 178.402 36.7707Z" fill="#3A62CF"/>
<path d="M170.515 35.923C165.257 42.9416 163.622 52.362 164.909 57.867L169.067 58.6339L165.07 65.2691L170.989 91.6785C170.989 91.6785 167.028 57.766 179.32 33.2538C175.677 33.2639 174.551 34.0106 170.515 35.923Z" fill="#5E85F0"/>
<path d="M180.248 40.1564C180.248 40.1564 185.183 36.917 185.203 36.8716C185.203 36.8716 183.654 41.8265 181.166 43.2545L180.248 40.1564Z" fill="#EA8A6C"/>
<path d="M178.629 40.0201L175.183 39.5811C169.88 38.905 166.09 34.0056 166.767 28.7025L169.002 11.1836C169.678 5.88055 174.572 2.09119 179.88 2.76732L183.327 3.2063C188.63 3.88243 192.419 8.78186 191.743 14.0849L190.497 26.9365C189.826 32.2496 183.937 40.6962 178.629 40.0201Z" fill="#FFC2B0"/>
<path d="M182.146 16.3303C178.286 17.4404 176.131 16.956 172.407 14.7762C168.366 12.4148 168.512 6.75855 172.407 4.15495C174.511 2.74718 174.789 1.78344 178.942 0.834841C190.723 -1.86463 201.789 5.74436 200.169 18.4344C200.169 18.4344 200.825 35.484 190.34 36.4023L188.644 30.6805C188.644 30.6805 191.041 30.1708 189.099 27.4966C188.564 26.7599 187.756 25.892 186.556 24.8778C185.254 23.7728 185.269 21.6889 185.743 19.6151C186.217 17.5161 184.219 15.74 182.146 16.3303Z" fill="#6E2E2E"/>
<path d="M193.343 30.1472C194.411 28.0924 194.126 25.8287 192.707 25.0909C191.288 24.3532 189.271 25.4209 188.203 27.4756C187.135 29.5304 187.42 31.7941 188.839 32.5319C190.259 33.2696 192.275 32.2019 193.343 30.1472Z" fill="#FFC2B0"/>
<path d="M167.861 21.9665C167.185 27.2695 170.97 32.169 176.278 32.8451L179.724 33.2841C183.019 33.7029 185.375 29.9993 187.555 25.776C188.13 26.3209 189.049 26.2705 189.558 25.6549L189.841 25.3168L188.867 29.4443C188.191 34.7473 183.821 41.4481 178.513 40.7669L175.067 40.3279C169.759 39.6518 165.974 34.7574 166.65 29.4493L168.886 11.9305C168.982 11.1938 169.163 10.4874 169.41 9.81628L167.861 21.9665Z" fill="#AF8080"/>
<path d="M212.067 115.807L206.531 120.091L201.021 113.976L206.92 109.546L212.067 115.807Z" fill="#DBEFFF"/>
<path d="M206.567 107.699C210.316 103.37 216.669 91.9661 216.669 91.9661C216.669 91.9661 206.673 68.1704 198.882 56.4138C194.987 50.5405 203.146 44.0416 208.722 48.3053C217.173 54.7689 225.368 76.4858 228.844 86.6429C230.01 90.0387 229.813 93.7523 228.299 97.0068C225.544 102.951 217.128 114.051 211.507 117.634C210.311 118.401 201.637 113.385 206.567 107.699Z" fill="#3A62CF"/>
<path d="M202.52 123.971C202.864 124.224 208.989 120.989 205.851 115.893C202.707 110.792 195.688 116.781 195.688 116.781C195.688 116.781 199.488 121.721 202.52 123.971Z" fill="#FFC2B0"/>
<path d="M193.948 112.073C194.538 115.479 196.118 118.446 197.919 121.363C199.66 124.173 201.875 125.939 204.418 128.018C205.382 128.805 206.769 127.433 205.795 126.641C203.429 124.703 201.234 123.018 199.604 120.379C197.889 117.609 196.395 114.798 195.83 111.559C195.613 110.323 193.731 110.847 193.948 112.073Z" fill="#213696"/>
<path d="M206.537 47.0438L198.721 66.2176L194.892 65.6374L195.013 73.4129L180.95 94.4688C180.95 94.4688 186.642 80.5425 191.072 62.1003C192.848 54.7083 196.824 48.4415 196.642 39.5811C200.336 42.1444 203.419 43.9104 206.537 47.0438Z" fill="#213696"/>
<path d="M204.927 45.5402L197.348 64.0884L192.298 63.3214L193.64 71.2786L180.975 93.9945C180.975 93.9945 179.325 76.9096 190.299 56.4945C192.903 51.6506 195.35 43.3554 194.2 38.4459C197.722 40.0454 201.763 42.5481 204.927 45.5402Z" fill="#5E85F0"/>
<path d="M204.751 240.235C204.892 239.918 206.991 235.281 207.495 232.621C207.591 232.112 207.834 229.7 207.783 228.883C207.667 227.061 207.95 225.971 203.857 223.463C197.167 219.361 190.935 241.961 190.935 241.961L190.506 247.451C190.345 248.425 191.137 249.484 191.99 250.039L192.474 250.196C195.724 250.983 197.626 250.171 198.998 248.606C201.355 245.922 202.389 245.604 204.751 240.235Z" fill="#15253D"/>
<path d="M204.599 238.691C204.741 238.364 210.836 224.836 204.862 222.439C199.599 220.33 196.965 225.542 194.846 231.098C194.22 232.738 192.706 236.249 192.101 237.405C191.657 238.247 191.077 240.997 190.94 241.961L190.966 246.295C190.829 247.254 192.096 246.406 192.979 246.951L193.716 243.101C195.421 244.156 196.839 248.96 198.257 247.36C200.689 244.615 202.238 244.181 204.599 238.691Z" fill="#894E4E"/>
<path d="M201.426 244.171C200.76 244.857 199.332 246.336 198.58 247.183C197.162 248.783 195.023 248.849 192.863 248.324C191.809 248.066 190.305 247.577 190.487 246.013L190.941 241.961C192.49 241.189 197.066 241.971 201.426 244.171Z" fill="#915350"/>
<path d="M195.854 219.815C198.993 222.464 205.396 221.99 207.747 218.529C207.818 220.411 207.853 222.298 207.838 224.18C207.778 231.849 195.844 232.071 195.905 224.372C195.92 222.853 195.895 221.334 195.854 219.815Z" fill="#E1EAF4"/>
<path d="M210.705 217.661L210.851 222.944C210.856 223.171 210.795 223.388 210.674 223.579C209.938 224.7 206.996 228.474 201.239 227.767C196.188 227.147 193.423 225.714 192.348 225.033C192.015 224.821 191.828 224.452 191.844 224.059L192.056 218.66C192.086 217.853 192.944 217.338 193.655 217.711C196.284 219.084 202.061 221.021 209.009 216.763C209.741 216.314 210.684 216.803 210.705 217.661Z" fill="#3A62CF"/>
<path d="M163.885 231.072C164.198 230.911 167.216 228.126 167.513 227.969C167.962 227.732 172.372 225.159 173.064 224.715C174.527 223.776 178.2 222.969 175.975 218.201C172.715 211.227 154.44 223.872 154.44 223.872L148.4 229.251C147.663 229.907 147.451 230.835 147.82 231.759C148.501 233.459 150.908 234.584 153.022 234.181C156.65 233.494 158.597 233.817 163.885 231.072Z" fill="#15253D"/>
<path d="M163.452 229.251C163.765 229.089 166.782 226.304 167.08 226.148C167.529 225.911 172.903 223.322 173.599 222.878C175.062 221.94 178.589 220.668 176.359 215.9C173.099 208.927 154.001 222.051 154.001 222.051L147.962 227.429C147.225 228.085 147.013 229.014 147.381 229.937C148.062 231.638 150.469 232.763 152.583 232.359C156.216 231.668 158.164 231.996 163.452 229.251Z" fill="#894E4E"/>
<path d="M156.226 231.89C155.272 232.031 153.496 232.182 152.366 232.394C150.251 232.798 148.057 231.638 147.375 229.937C147.007 229.014 147.224 228.085 147.956 227.429L150.902 224.806C153.491 225.194 155.277 227.737 156.226 231.89Z" fill="#915350"/>
<path d="M163.698 209.951C166.953 212.131 173.32 211.354 175.515 208.155C175.672 209.825 175.793 211.49 175.864 213.16C176.151 219.967 164.248 220.819 163.961 213.987C163.9 212.64 163.809 211.298 163.698 209.951Z" fill="#E1EAF4"/>
<path d="M178.558 206.747L178.79 212.03C178.8 212.257 178.745 212.479 178.624 212.665C177.907 213.796 175.031 217.62 169.264 217.01C164.203 216.475 161.413 215.087 160.328 214.426C159.99 214.22 159.798 213.856 159.808 213.458L159.929 208.059C159.949 207.251 160.792 206.727 161.513 207.085C164.168 208.412 169.975 210.254 176.847 205.879C177.564 205.415 178.518 205.889 178.558 206.747Z" fill="#3A62CF"/>
<path d="M177.721 101.003L177.711 99.8527L176.232 100.428L175.914 99.6963L138.858 78.3023C138.414 78.0449 137.627 78.0752 137.108 78.3729L121.153 87.5814V87.3241L118.201 88.5098V89.7309H118.221C118.257 89.852 118.353 89.958 118.504 90.0488L157.069 112.311C157.513 112.568 158.3 112.538 158.819 112.24L177.297 101.573C177.575 101.412 177.721 101.2 177.721 101.003Z" fill="#9EC2FF"/>
<path d="M157.049 111.095L118.489 88.8327C118.045 88.5754 118.101 88.1213 118.615 87.8236L137.093 77.1569C137.607 76.8592 138.395 76.8289 138.844 77.0862L177.403 99.3481C177.847 99.6054 177.792 100.06 177.277 100.357L158.8 111.024C158.28 111.322 157.493 111.352 157.049 111.095Z" fill="#F5F7FF"/>
<path d="M159.683 96.7546L150.348 91.3657C150.242 91.3052 150.252 91.1942 150.378 91.1235L154.849 88.5401C154.975 88.4695 155.162 88.4594 155.273 88.525L164.607 93.9138C164.713 93.9744 164.703 94.0854 164.577 94.156L160.106 96.7394C159.98 96.8101 159.789 96.8202 159.683 96.7546Z" fill="#9EC2FF"/>
<path d="M156.065 86.0424C155.908 85.0282 155.111 83.8274 154.289 83.3581L116.002 61.6008C115.658 61.4091 115.371 61.3738 115.154 61.4646L115.149 61.4696C115.073 61.505 115.008 61.5554 114.952 61.621L113.686 62.9531L114.836 62.8522L118.474 86.3805C118.63 87.3947 119.428 88.5956 120.25 89.0648L156.448 109.636L157.619 110.948L157.765 111.271C158.497 111.428 160.253 110.186 160.253 110.186L156.065 86.0424Z" fill="white"/>
<path d="M157.175 112.235L118.893 90.4776C118.07 90.0084 117.273 88.8075 117.116 87.7933L113.438 64.0076C113.282 62.9934 113.822 62.5494 114.644 63.0187L152.926 84.7759C153.749 85.2452 154.546 86.4461 154.702 87.4603L158.381 111.246C158.542 112.26 158.002 112.704 157.175 112.235Z" fill="#213696"/>
<path d="M136.83 89.2061C137.027 90.4676 135.882 90.7501 134.272 89.8369C132.663 88.9236 131.199 87.1576 131.002 85.8911C130.806 84.6296 131.951 84.3471 133.561 85.2604C135.175 86.1787 136.639 87.9447 136.83 89.2061Z" fill="white"/>
</g>
<defs>
<clipPath id="clip0">
<rect width="229.138" height="252.58" fill="white" transform="translate(0.453125 0.294922)"/>
</clipPath>
</defs>
</svg>
