<svg width="119" height="244" viewBox="0 0 119 244" fill="none" xmlns="http://www.w3.org/2000/svg">
<g clip-path="url(#clip0)">
<path opacity="0.4" d="M64.102 229.471C64.2391 221.728 51.7133 215.227 36.125 214.951C20.5366 214.675 7.78861 220.729 7.65153 228.472C7.51445 236.215 20.0402 242.716 35.6285 242.992C51.2169 243.268 63.9649 237.214 64.102 229.471Z" fill="#A8C4E5"/>
<path d="M31.4304 236.697L19.6459 225.033C18.0642 224.117 14.5122 223.738 12.0979 224.052C11.0157 224.2 10.1925 225.107 10.1092 226.198L9.93346 228.557C9.56346 231.943 9.86871 232.433 11.9592 233.635L24.3449 240.786C26.4354 241.988 29.6174 242.118 31.4211 241.082L31.9299 240.786C33.7521 239.74 33.5208 237.9 31.4304 236.697Z" fill="#2C1F9C"/>
<path d="M11.0811 224.617C11.0811 228.095 19.5448 228.095 19.5448 224.617V213.304H11.0811V224.617V224.617Z" fill="#C6D2F2"/>
<path d="M59.236 221.768L47.4516 210.103C45.8698 209.188 42.3179 208.808 39.9036 209.123C38.8214 209.271 37.9981 210.177 37.9149 211.269L37.7391 213.628C37.3691 217.013 37.6744 217.503 39.7649 218.706L52.1506 225.856C54.2411 227.059 57.423 227.188 59.2268 226.152L59.7355 225.856C61.5578 224.811 61.3265 222.97 59.236 221.768Z" fill="#2C1F9C"/>
<path d="M38.8857 209.678C38.8857 213.156 47.3495 213.156 47.3495 209.678V198.365H38.8857V209.678Z" fill="#C6D2F2"/>
<path d="M37.7577 206.468C41.0785 208.846 46.5637 208.79 48.3952 206.024L56.9422 101.546L30.6445 93.7483L37.7577 206.468Z" fill="#3B2AD1"/>
<path d="M10.1006 217.439C12.7831 221.425 18.8325 221.444 20.627 218.567L38.3499 99.7607H7.78809L10.1006 217.439Z" fill="#3B2AD1"/>
<path d="M33.5586 131.812L34.1968 140.118L41.7263 114.385L37.5268 115.19L33.5586 131.812Z" fill="#2C1F9C"/>
<path d="M53.1408 35.9268L65.0362 58.2285C63.0937 65.9892 58.885 69.9389 53.5755 72.0201L49.0615 41.8468L53.1408 35.9268Z" fill="#2C1F9C"/>
<path d="M63.417 52.0773C63.417 52.0773 59.5228 62.021 46.7764 66.3869" stroke="white" stroke-width="0.9152" stroke-miterlimit="10" stroke-linecap="round" stroke-linejoin="round"/>
<path d="M57.0534 97.2633V56.4432C57.0534 33.4848 48.3769 24.9841 33.91 30.2566L27.9345 31.8476C10.4706 41.2548 1.60917 40.7831 4.7264 59.2645L7.78814 99.77C7.78814 120.619 58.1634 121.776 57.0534 97.2633Z" fill="#4852DB"/>
<path d="M16.2428 66.2482L8.7133 97.5038L7.81605 100.547L6.70605 85.4788L16.2428 66.2482Z" fill="#2C1F9C"/>
<path d="M33.7065 29.5536C33.7065 29.5536 30.95 31.2094 29.729 31.2094C28.508 31.2094 18.7771 20.8309 25.7053 10.397C30.0898 3.78325 41.8187 9.88822 41.8187 9.88822L33.7065 29.5536Z" fill="#6E2E2E"/>
<path d="M49.0604 22.4714C52.1153 15.4048 51.3454 8.2728 47.3408 6.54166C43.3362 4.81052 37.6134 9.13577 34.5586 16.2024C31.5038 23.269 32.2737 30.401 36.2783 32.1321C40.2828 33.8633 46.0056 29.538 49.0604 22.4714Z" fill="#FFC2B0"/>
<path d="M26.7598 20.7847C26.7598 27.4539 32.726 31.5794 37.7672 28.6749C42.8084 25.7704 46.8877 18.0004 46.8877 11.3312C46.8877 4.662 42.7992 1.60952 37.7672 4.52325C32.7352 7.43699 26.7598 14.1062 26.7598 20.7847Z" fill="#FFC2B0"/>
<path d="M32.0779 40.2558L32.7717 40.376C35.1119 40.7738 37.3597 39.1828 37.7574 36.8333L40.0051 23.6151C40.4029 21.2749 38.8119 19.0271 36.4624 18.6294L35.7687 18.5091C33.4284 18.1114 31.1807 19.7024 30.7829 22.0519L26.7592 34.4376C26.3522 36.7778 29.7284 39.858 32.0779 40.2558Z" fill="#FFC2B0"/>
<path d="M25.7051 23.2544C25.7051 24.8731 27.0186 26.1866 28.6373 26.1866C30.2561 26.1866 31.5695 24.8731 31.5695 23.2544C31.5695 21.6356 30.2561 20.3221 28.6373 20.3221C27.0186 20.3129 25.7051 21.6264 25.7051 23.2544Z" fill="#FFC2B0"/>
<path d="M42.7714 9.87894C42.7714 9.87894 41.5781 25.3541 25.7052 20.3129C25.7052 20.3129 17.7873 10.4062 29.6087 2.32172C40.0242 -4.80074 47.7479 6.7432 47.7479 6.7432L42.7714 9.87894Z" fill="#6E2E2E"/>
<path d="M50.6617 17.1864C50.6617 17.1864 49.228 11.951 42.7715 9.87896L47.748 6.74323C47.748 6.74323 52.9372 7.79772 50.6617 17.1864Z" fill="#6E2E2E"/>
<path d="M21.6719 76.0254C21.6719 77.2926 22.7264 78.3009 23.9844 78.2546C27.2218 78.1344 30.2836 76.5156 30.2836 73.1116V61.4937C30.2836 60.7445 29.3678 60.3652 28.8498 60.9109C26.9813 62.8997 24.7984 63.8247 22.4211 64.0189C21.9956 64.0559 21.6719 64.4259 21.6719 64.8514V76.0254V76.0254Z" stroke="white" stroke-width="0.9152" stroke-miterlimit="10"/>
<path d="M30.2836 62.6592C28.8036 65.7394 25.5754 67.0807 21.6719 67.7467" stroke="white" stroke-width="0.9152" stroke-miterlimit="10"/>
<path d="M38.4976 32.0141C38.4976 32.0141 32.8181 32.1343 29.1182 26.6954C29.1182 26.6954 32.6886 35.0018 37.8686 35.7141L38.4976 32.0141Z" fill="#F09A82"/>
<path d="M27.1852 97.772C25.1225 73.5927 39.5801 42.7441 59.4953 28.8691C68.6528 22.4867 77.3662 20.8124 84.3037 23.2174V23.2081L84.3777 23.2451C85.3119 23.5781 86.2184 23.9759 87.0879 24.4476L103.377 32.4766L95.0059 32.4859C97.2721 36.4448 98.7614 41.4953 99.2794 47.5263C101.342 71.7057 86.8752 102.554 66.9693 116.429C62.89 119.269 58.9126 121.165 55.1293 122.201L53.1683 127.4L41.8001 121.97C41.1711 121.739 40.5606 121.461 39.9594 121.156L39.7559 121.063L39.7651 121.054C32.9017 117.502 28.1842 109.51 27.1852 97.772Z" fill="#D84177"/>
<path d="M106.238 93.0175C118.854 66.1073 116.488 38.3871 100.951 31.1028C85.4147 23.8185 62.5918 39.7284 49.9749 66.6385C37.3579 93.5487 39.7247 121.269 55.2612 128.553C70.7977 135.838 93.6206 119.928 106.238 93.0175Z" fill="#FF5C97"/>
<path d="M82.1211 68.8659C82.1211 68.8659 88.966 39.6915 100.232 54.0844C105.792 61.1884 95.9867 84.7573 88.5035 100.279C85.118 107.309 75.7201 108.345 71.2524 102.156C64.9254 93.3968 58.1729 81.8991 59.6067 74.2678C64.1299 50.107 82.1211 68.8659 82.1211 68.8659Z" fill="white"/>
<path d="M7.78823 66.3869C7.78823 66.3869 -3.08047 83.2311 15.2899 109.538C20.3404 116.771 48.0903 119.149 48.0903 119.149L48.081 113.386C48.081 113.386 28.9891 111.786 24.2624 103.405C18.9344 93.9611 22.7547 61.8915 7.78823 66.3869Z" fill="#FFC2B0"/>
<path d="M51.5955 122.617L48.6726 121.998C46.4248 121.517 44.5933 119.01 44.6026 116.411C44.6118 113.821 46.4526 112.091 48.7003 112.563L51.6233 113.182C53.871 113.663 55.7025 116.17 55.6933 118.769C55.684 121.369 53.8433 123.098 51.5955 122.617Z" fill="#FFC2B0"/>
<path d="M109.768 67.7837L109.99 64.2224C110.157 61.4937 112.321 59.4772 114.8 59.7454C117.27 60.0137 119.157 62.4742 118.99 65.2122L118.768 68.7734C118.602 71.5021 116.437 73.5186 113.958 73.2504C111.489 72.9821 109.602 70.5216 109.768 67.7837Z" fill="#FFC2B0"/>
<path d="M19.2115 61.0127L20.8025 88.4666C20.4325 90.8623 1.40534 90.9456 1.63658 87.4398C1.67358 86.8201 -1.1569 54.1677 6.00256 44.7235C11.8208 37.0553 19.0173 48.22 19.2115 61.0127Z" fill="#4852DB"/>
<path d="M20.3494 80.7614C20.3494 80.7614 11.6822 85.4048 1.14648 80.2341" stroke="white" stroke-width="0.8438" stroke-miterlimit="10" stroke-linecap="round" stroke-linejoin="round"/>
</g>
<defs>
<clipPath id="clip0">
<rect width="118.242" height="243.015" fill="white" transform="translate(0.757812)"/>
</clipPath>
</defs>
</svg>
