<svg width="2975" height="1700" viewBox="0 0 2975 1700" fill="none" xmlns="http://www.w3.org/2000/svg">
<path d="M327.57 1532.46C327.57 1532.46 44.88 930.46 602.03 930.46C896.4 930.46 775.13 765.29 975.27 574.14C1175.41 382.99 1875.34 230.27 2024.27 599.39C2173.2 968.51 1805.08 1248.76 2160.83 1200.68C2588.34 1142.91 2757.22 1532.45 2757.22 1532.45L327.57 1532.46Z" fill="#FBECDB"/>
<path d="M2617.08 1456.08C2590.7 1436.8 2536.79 1449.82 2497.01 1463.74C2490.52 1454.63 2483.2 1446.14 2475.14 1438.37C2560.84 1383.16 2679.22 1265.42 2616.48 1255.45C2561.94 1246.79 2488.33 1352.77 2449 1417.28C2408.15 1389.8 2345.56 1369.6 2250 1376.61C2002 1394.79 1808.24 1234.81 1665.42 1288.17C1551.87 1330.59 1447.8 1354.36 1347.42 1346.24C1351.74 1272.92 1352.68 1128.97 1295.1 1114.04C1236.66 1098.88 1293.99 1262.36 1325.85 1344.04C1318.38 1343.08 1310.93 1341.94 1303.48 1340.61C1282.84 1299.93 1248.84 1246.69 1211.48 1244.87C1176.32 1243.15 1219.71 1291.02 1262.41 1331.57C1139.68 1305.8 994.09 1405.57 991.68 1523.57H2524C2524 1523.57 2521.29 1506.35 2509.27 1483.65C2568.47 1482.4 2645.73 1477 2617.08 1456.08Z" fill="#A8D29F"/>
<path d="M1325.97 1432.31H922.12V1523.5H1325.97V1432.31Z" fill="#4A75CB"/>
<path d="M1201.44 1432.31H797.6V1523.51H1201.44V1432.31Z" fill="#699DEE"/>
<path d="M1484.84 1523.48H1785.55V1103.17H1484.84V1523.48Z" fill="#D86713"/>
<path d="M1392.11 1523.48H1692.82V1103.17H1392.11V1523.48Z" fill="#F1A34F"/>
<path d="M1692.82 1103.17L1785.54 1166.28V1103.17H1692.82Z" fill="#C95C12"/>
<path d="M764.56 1196.27C764.56 1196.27 708.33 1238.09 697.36 1235.55C686.39 1233.01 738.46 1190.41 738.46 1190.41C718.87 1180.99 657.96 1186.9 657.96 1186.9C657.96 1186.9 637.68 1252.32 627.67 1247.16C617.66 1242 648.59 1190.16 648.59 1190.16C626.77 1188.83 600 1205 600 1205C563.36 1233.93 602.41 1279.49 602.41 1279.49C602.41 1279.49 594.89 1302 571.75 1322.49C571.75 1322.49 538.75 1346.93 536.41 1390.6L542.41 1391.13C542.41 1391.13 551.92 1350.46 569.19 1331.23C569.87 1330.53 570.84 1329.53 572.05 1328.32C574.86 1325.71 576.83 1323.75 578.16 1322.32C586.76 1314.05 598.64 1303.53 604.37 1302.51C604.161 1301.57 604.076 1300.6 604.12 1299.63C604.2 1300.55 604.28 1301.5 604.37 1302.51C606.37 1325.51 650.99 1345.64 678.47 1349.77C705.95 1353.9 697.47 1342.61 687.99 1325.87C678.51 1309.13 648.56 1301.62 641.72 1293.87C634.88 1286.12 649.02 1286.14 665.58 1293.7C682.14 1301.26 684.4 1321.43 710.96 1334.15C737.52 1346.87 777.48 1302.79 777.48 1302.79C756.31 1301.72 726.09 1278.73 727.18 1271.7C728.27 1264.67 778.49 1283.83 787.07 1284.7C795.65 1285.57 815.19 1274.94 818.21 1240.37C821.23 1205.8 764.56 1196.27 764.56 1196.27Z" fill="#82B378"/>
<path d="M465.9 1222.24C465.9 1222.24 528.01 1187.45 499.02 1140.24C499.02 1140.24 475.84 1111.24 451.02 1103.8C451.02 1103.8 464.27 1174.19 451.02 1175.8C437.77 1177.41 441.91 1096.29 441.91 1096.29C441.91 1096.29 376.48 1064.82 350.81 1067.29C350.81 1067.29 391.39 1136.03 378.14 1134.37C364.89 1132.71 319.34 1063.15 319.34 1063.15C319.34 1063.15 252.26 1050.72 241.49 1090.48C230.72 1130.24 248.12 1150.11 258.06 1152.59C268 1155.07 331.76 1154.25 330.11 1162.53C328.46 1170.81 285.39 1184.06 261.37 1176.61C261.37 1176.61 287.87 1242.03 322.65 1238.72C357.43 1235.41 368.2 1213.88 389.74 1212.22C411.28 1210.56 427 1216.36 416.24 1222.16C405.48 1227.96 369.03 1224.06 351.64 1238.84C334.25 1253.62 320.17 1262.74 352.47 1269.36C384.77 1275.98 442.74 1271.85 454.33 1247L465.9 1222.24Z" fill="#A8D29F"/>
<path d="M482.46 1282.69C465.07 1250.39 465.9 1222.24 465.9 1222.24C446 1159.29 272.1 1103 272.1 1103C493.23 1192.44 454.3 1247.1 454.3 1247.1C460.3 1250.58 469.2 1267.15 475.4 1279.87C476.28 1282.03 477.68 1285.03 479.76 1289.1C480.6 1290.93 481.27 1292.44 481.76 1293.49C493.14 1321.97 487.11 1371.17 487.11 1371.17L494 1373C509.28 1323.42 482.46 1282.69 482.46 1282.69Z" fill="#82B378"/>
<path d="M564.71 1174.27C564.71 1174.27 482.84 1128.42 521.05 1066.19C521.05 1066.19 551.61 1027.98 584.36 1018.19C584.36 1018.19 566.9 1110.98 584.36 1113.19C601.82 1115.4 596.36 1008.39 596.36 1008.39C596.36 1008.39 682.61 966.91 716.45 970.18C716.45 970.18 662.95 1060.79 680.45 1058.61C697.95 1056.43 757.96 964.72 757.96 964.72C757.96 964.72 846.39 948.35 860.58 1000.72C874.77 1053.09 851.85 1079.32 838.75 1082.59C825.65 1085.86 741.59 1084.78 743.75 1095.7C745.91 1106.62 802.75 1124.08 834.36 1114.25C834.36 1114.25 799.43 1200.5 753.58 1196.13C707.73 1191.76 693.53 1163.38 665.15 1161.2C636.77 1159.02 616.02 1166.65 630.21 1174.3C644.4 1181.95 692.44 1176.8 715.37 1196.3C738.3 1215.8 756.85 1227.8 714.27 1236.53C671.69 1245.26 595.27 1239.81 580 1207.06L564.71 1174.27Z" fill="#A8D29F"/>
<path d="M820.17 1017.06C820.17 1017.06 590.91 1091.3 564.71 1174.27C564.71 1174.27 565.81 1211.38 542.88 1253.96C542.88 1253.96 507.52 1307.65 527.68 1372.96L536.78 1370.52C536.78 1370.52 528.83 1305.67 543.83 1268.12C544.45 1266.74 545.33 1264.75 546.44 1262.33C549.18 1256.97 551.03 1253.02 552.19 1250.17C560.36 1233.41 572.14 1211.56 580 1206.98C580 1207 528.69 1135 820.17 1017.06Z" fill="#82B378"/>
<path d="M562 1514.72C583.061 1514.72 603.916 1510.57 623.375 1502.51C642.833 1494.45 660.513 1482.64 675.406 1467.75C690.298 1452.85 702.112 1435.17 710.172 1415.71C718.231 1396.26 722.38 1375.4 722.38 1354.34H401.57C401.57 1375.41 405.72 1396.26 413.783 1415.73C421.846 1435.19 433.664 1452.87 448.562 1467.76C463.46 1482.66 481.146 1494.47 500.61 1502.53C520.074 1510.58 540.934 1514.73 562 1514.72Z" fill="#F1A34F"/>
<path d="M601.42 1513.5C578.856 1516.3 555.954 1514.27 534.232 1507.56C512.51 1500.84 492.462 1489.58 475.416 1474.54C458.371 1459.49 444.715 1440.99 435.355 1420.27C425.995 1399.55 421.143 1377.08 421.12 1354.34H461C461.004 1393.42 475.273 1431.15 501.128 1460.46C526.983 1489.77 562.645 1508.63 601.42 1513.5V1513.5Z" fill="#FFB973"/>
<path d="M704.77 1503.69H419.14C413.893 1503.69 408.862 1505.78 405.153 1509.49C401.444 1513.2 399.36 1518.23 399.36 1523.48H724.55C724.55 1518.23 722.466 1513.2 718.757 1509.49C715.048 1505.78 710.017 1503.69 704.77 1503.69V1503.69Z" fill="#F1A34F"/>
<path d="M723.53 1354.34H398.76C398.107 1354.34 397.482 1354.6 397.02 1355.06C396.559 1355.52 396.3 1356.15 396.3 1356.8C396.3 1357.45 396.559 1358.08 397.02 1358.54C397.482 1359 398.107 1359.26 398.76 1359.26H723.53C724.182 1359.26 724.808 1359 725.269 1358.54C725.731 1358.08 725.99 1357.45 725.99 1356.8C725.99 1356.15 725.731 1355.52 725.269 1355.06C724.808 1354.6 724.182 1354.34 723.53 1354.34V1354.34Z" fill="#D86713"/>
<path d="M1961.13 509.78C1956.48 509.07 1942.47 522.02 1942.47 522.02C1912.56 525.48 1868.83 533.42 1853.09 536.45C1841.92 538.6 1811.91 528.37 1782.59 516.62C1747.72 502.62 1713.84 486.52 1713.84 486.52C1694.49 485.52 1672.52 520.83 1711.76 543.27C1717.76 546.7 1740.25 552.55 1766.17 557.89C1801.92 565.26 1844.17 571.65 1858.53 569.41C1875.23 566.8 1922.53 549.5 1950.62 536.26H1950.69L1951 536.11C1952.69 535.32 1959.57 532.25 1964.17 532.53C1969.44 532.84 1981.17 523.2 1981.53 520.63C1981.89 518.06 1965.78 510.48 1961.13 509.78Z" fill="#ED975D"/>
<path d="M1924.61 954.46L1908.14 957.81C1908.14 957.81 1832.77 873.13 1821.14 837.5C1814.92 818.5 1775.14 810.22 1733.54 799.5C1697.35 790.15 1659.8 778.87 1641.87 756.87C1603.32 709.61 1666.07 651.53 1666.07 651.53C1666.07 651.53 1732.8 691.19 1790.36 732.16C1830.59 760.79 1866.36 790.06 1871.74 806.88C1884.83 847.76 1912.58 925.52 1924.61 954.46Z" fill="#2B478B"/>
<path d="M1902.56 982.4H1911.83C1914.93 981.91 1917.22 981.01 1920.4 980.6C1925.24 979.96 1927.46 981.95 1927.9 982.4L1927.99 982.49H1967.34C1968.34 981.08 1967.34 977.81 1966.45 975.4C1966.14 974.591 1965.65 973.866 1965.01 973.281C1964.37 972.696 1963.6 972.268 1962.77 972.03C1958.6 970.82 1950.37 969.74 1942.83 962.92C1938.6 959.09 1922.37 948.84 1922.37 948.84H1922.28C1921.92 948.84 1920.28 949.37 1912.84 955.6C1909.03 958.82 1902.52 951.06 1902.52 951.06C1901.63 951.875 1900.9 952.857 1900.39 953.95C1899.48 955.81 1899.18 957.91 1899.54 959.95C1900.13 963.5 1898.24 970.09 1896.72 974.54C1895.81 977.24 1895.04 979.16 1895.04 979.16C1895.04 979.16 1894.59 981.4 1902.56 982.4Z" fill="#233862"/>
<path d="M1790.36 732.13L1733.54 799.47C1697.35 790.12 1659.8 778.84 1641.87 756.84C1603.32 709.58 1666.07 651.5 1666.07 651.5C1666.07 651.5 1732.8 691.16 1790.36 732.13Z" fill="#1E3D70"/>
<path d="M1738.73 697C1738.73 697 1734.15 711.44 1726.73 733.17C1717.3 760.65 1703.26 799.77 1688.03 836.06C1684.68 844.06 1681.27 851.87 1677.84 859.41C1665.17 887.33 1652.21 911.27 1640.84 923.41C1620.32 945.27 1570.45 1085.84 1570.45 1085.84L1558.02 1082.4C1558.02 1082.4 1540.69 962.4 1602.02 894.07C1602.71 893.384 1603.15 892.486 1603.26 891.52C1604.08 881.41 1607 836.14 1613.36 790.26C1614.92 779 1616.69 767.72 1618.67 756.91C1618.8 756.21 1618.93 755.53 1619.06 754.85C1628.39 704.85 1637.33 682.61 1648.87 671.43L1733.74 695.58L1738.73 697Z" fill="#2B478B"/>
<path d="M1556.54 1103.08H1565.81C1568.91 1102.59 1571.2 1101.69 1574.38 1101.27C1579.22 1100.64 1581.44 1102.62 1581.88 1103.08L1581.97 1103.17H1621.32C1622.32 1101.75 1621.32 1098.48 1620.43 1096.07C1620.12 1095.26 1619.62 1094.54 1618.99 1093.95C1618.35 1093.37 1617.58 1092.94 1616.75 1092.7C1612.57 1091.49 1604.35 1090.42 1596.81 1083.6C1592.57 1079.77 1576.34 1069.51 1576.34 1069.51H1576.26C1575.9 1069.51 1574.26 1070.04 1566.82 1076.27C1563.01 1079.49 1556.5 1071.73 1556.5 1071.73C1555.61 1072.55 1554.88 1073.53 1554.37 1074.62C1553.45 1076.5 1553.15 1078.61 1553.52 1080.67C1554.11 1084.21 1552.22 1090.8 1550.71 1095.26C1549.79 1097.96 1549.01 1099.87 1549.01 1099.87C1549.01 1099.87 1548.57 1102.08 1556.54 1103.08Z" fill="#233862"/>
<path d="M1574.74 533.71C1574.74 533.71 1560.54 568.44 1544.17 602.25C1530.4 630.68 1515.1 658.45 1505.4 664.38C1491.72 672.73 1454.04 696.3 1429.59 713.89C1429.59 713.89 1410.52 713.74 1407.59 717.39C1404.66 721.04 1397.79 737.46 1399.79 739.12C1401.79 740.78 1416.95 740.01 1420.63 736.23C1423.85 732.94 1431 730.57 1432.78 730.02L1433.11 729.91H1433.19C1462.89 720.77 1509.49 701.73 1523.59 692.42C1535.74 684.42 1562.66 651.24 1584.13 621.73C1599.7 600.33 1612.4 580.86 1614.52 574.29C1628.4 531.26 1588.38 520 1574.74 533.71Z" fill="#FFB27D"/>
<path d="M1649 397.49C1647.43 395.206 1645.74 393.012 1643.92 390.92C1646.05 391.031 1648.18 390.711 1650.18 389.98C1655.18 387.92 1657.44 372.1 1656.69 367.4C1655.94 362.7 1649.02 349.14 1640.48 347.79C1631.94 346.44 1623.12 355.91 1623.12 355.91C1624.7 349.07 1639.12 345.12 1639.12 345.12C1609.37 350.61 1610.89 370.45 1611.12 372.29C1583.89 362.58 1567.9 413.87 1567.9 413.87L1638.45 455.45C1638.45 455.45 1638.63 444.12 1645.36 444.85C1655.85 446 1664.59 420.21 1649 397.49Z" fill="#2C3A64"/>
<path d="M1653.5 505.11C1637.31 512.74 1615.83 501.75 1615.94 501.63C1617.33 500.25 1616.84 496.09 1615.57 490.63C1614.3 484.96 1611.29 477.21 1605.74 467.97C1604.59 465.97 1603.43 464.03 1602.04 461.97L1603.89 461.28L1635.34 448.68C1635.34 448.68 1640.43 457.81 1645.75 466.13C1650.26 473.07 1655 479.32 1657.08 479.08C1657.2 479 1678 493.32 1653.5 505.11Z" fill="#FFB27D"/>
<path d="M1635.34 451.81C1634.53 463.02 1630.72 483.26 1615.57 490.66C1614.3 484.99 1611.29 477.24 1605.74 468L1635.34 451.81Z" fill="#ED975D"/>
<path d="M1603.9 480.76C1603.9 480.76 1644.85 464.62 1634.4 439.28C1623.95 413.94 1622.21 394.78 1595.63 404.02C1569.05 413.26 1567.98 425.02 1569.41 434.3C1570.84 443.58 1593 484.3 1603.9 480.76Z" fill="#FFB27D"/>
<path d="M1619.17 433.5C1638.08 430.83 1643.6 423.19 1643.6 423.19C1632.12 419.258 1622.37 411.464 1616 401.14C1616 401.14 1594.75 393.97 1579 405.95C1578 407.254 1577.31 408.774 1577 410.39C1573.39 409.21 1568 409.52 1564.83 419.72C1560.13 435.04 1576.83 451.78 1576.83 451.78C1580.89 450.63 1576.31 436.97 1575.67 429.68C1575.2 424.32 1578.1 417.45 1579.67 414.2C1581.67 416.8 1601.62 441.86 1625.97 442.86C1617.22 439.601 1608.95 435.164 1601.39 429.67C1607.21 432.53 1613.4 434.31 1619.17 433.5Z" fill="#2C3A64"/>
<path d="M1731.45 557.33C1731.1 556.1 1730.73 554.83 1730.34 553.53C1735.53 543.865 1739.03 533.379 1740.67 522.53C1743.45 503.8 1738.67 492.23 1738.67 492.23C1738.67 492.23 1710.27 477.17 1697.73 475.23L1697.57 475.18L1697.07 475.13C1684.41 473.39 1657 478.98 1657 478.98C1657 478.98 1662.29 493.06 1647.38 502.44C1632.47 511.82 1616.53 500.03 1616.53 500.03C1616.05 500.36 1615.53 500.71 1615.02 501.09C1615.02 501.09 1575.78 526.99 1572.26 532.9C1568.74 538.81 1553.64 568.12 1553.64 568.12C1553.64 568.12 1558.43 592.71 1611.44 594.77C1615.8 605.34 1619.14 615.65 1620.22 624.25C1624.43 657.64 1619.54 683.97 1624.45 703.46C1629.36 722.95 1717.81 711.84 1733.83 708.09C1749.85 704.34 1746.24 687.23 1747.48 670.62C1749.06 649.8 1736.67 575.74 1731.45 557.33Z" fill="#699DEE"/>
<path d="M1740.67 522.57C1739.01 533.456 1735.49 543.977 1730.27 553.67C1728.88 547.54 1723.27 525.11 1714.08 514.94C1714.08 514.94 1729.46 516.33 1740.67 522.57Z" fill="#4A82D3"/>
<path d="M1380.52 741.38C1380.52 741.38 1397 721.38 1400.52 719.05C1404.04 716.72 1419.63 712.55 1420.52 713.38C1421.41 714.21 1421.45 715.38 1419.52 717.13C1417.59 718.88 1410.23 723.13 1411.28 723.61C1412.33 724.09 1434.54 713.04 1437.75 716.76C1440.96 720.48 1435.93 735.82 1427.37 743.18C1418.81 750.54 1393.27 753.68 1391.67 754.71C1378.07 763.42 1380.52 741.38 1380.52 741.38Z" fill="#ED975D"/>
<path d="M1090.39 695.27C1090.39 695.27 1114.07 723.35 1144.21 711.6C1144.21 711.6 1150.7 695.92 1150.79 684.35C1150.79 682.93 1150.79 681.55 1150.79 680.24C1150.95 667.24 1151.39 659.91 1151.39 659.91C1150.02 659.34 1105.3 640.98 1105.34 642.5C1106.13 677.72 1090.39 695.27 1090.39 695.27Z" fill="#FFB27D"/>
<path d="M1109.85 650.9C1114.16 658.9 1128.96 674.53 1150.85 680.24C1151.01 667.24 1151.45 659.91 1151.45 659.91C1150.17 659.58 1108.57 648.54 1109.85 650.9Z" fill="#ED975D"/>
<path d="M1160.81 658.56C1160.81 658.56 1110.52 670.38 1103.64 638.95C1096.76 607.52 1085.64 587.88 1117.45 579.01C1149.26 570.14 1158.15 580.75 1163 590.68C1167.85 600.61 1173.71 654.68 1160.81 658.56Z" fill="#FFB27D"/>
<path d="M1105.36 647.52C1104.67 647.96 1093.85 651.28 1073.36 610.46C1070.14 604.05 1067.95 590.19 1075.45 577.94C1082.95 565.69 1109.54 556.06 1131.63 551.87C1153.72 547.68 1159.02 560.11 1164.22 572.6C1169.68 585.71 1185.45 596.51 1185.45 596.51C1166.45 607.15 1143.45 591.93 1135.51 594.43C1127.57 596.93 1124.76 609.43 1124.16 613.48C1123.56 617.53 1122.65 620.83 1112.65 617.24C1102.65 613.65 1108.13 631.41 1109.73 634.8C1109.73 634.8 1111.09 643.84 1105.36 647.52Z" fill="#A9453D"/>
<path d="M975.82 1432.31H945.37C938.99 1432.31 931.89 1425.83 930.12 1413.98C928.35 1402.13 915.22 1395.64 912.38 1385.98C909.54 1376.32 924.09 1362.61 924.09 1362.61L926.52 1359.44L929.05 1356.14L953.17 1361.89C953.17 1361.89 953.77 1367.71 954.17 1375.13C954.43 1380.48 954.57 1386.67 954.27 1392.13C953.56 1405.13 957.84 1419.01 969.19 1421.53C980.54 1424.05 975.82 1432.31 975.82 1432.31Z" fill="#2C3A64"/>
<path d="M1187.79 1432.6H1107.08C1106.49 1432.51 1105.91 1432.34 1105.37 1432.09C1099.98 1429.31 1101.67 1408.09 1102.31 1401.51C1102.44 1400.29 1102.53 1399.58 1102.53 1399.58C1102.53 1399.58 1130.91 1376.21 1134.81 1394.11C1134.94 1394.66 1135.08 1395.21 1135.23 1395.75C1140.16 1412.49 1162.23 1420.1 1174.91 1422.22C1184.63 1423.86 1187.15 1429.69 1187.79 1432.6Z" fill="#2C3A64"/>
<path d="M1171.53 965.85C1171.53 965.85 1167.22 1019.63 1162.15 1084.27C1155.26 1172.09 1146.98 1279.96 1146.15 1300.39C1144.74 1335.87 1139.06 1392.63 1139.06 1392.63C1139.06 1392.63 1125.58 1406.12 1098.61 1400.43C1098.61 1400.43 1074.61 1319.43 1067.72 1233.68C1067.61 1232.27 1067.5 1230.86 1067.4 1229.44C1061.01 1142.17 1051.08 958.44 1051.08 958.44L1171.53 965.85Z" fill="#EE9849"/>
<path d="M1171.53 965.85C1171.53 965.85 1167.22 1019.63 1162.15 1084.27L1067.73 1233.68C1067.62 1232.27 1067.51 1230.86 1067.41 1229.44C1061.02 1142.17 1051.09 958.44 1051.09 958.44L1171.53 965.85Z" fill="#E58638"/>
<path d="M1151.84 972.24C1151.84 972.24 1074.15 1167 1023.06 1258.53C971.97 1350.06 956.06 1375.6 956.06 1375.6C956.06 1375.6 926.8 1363.9 924.14 1355.91C924.14 1355.91 943.67 1179.21 977.88 1136.14C997.21 1111.8 1019.88 1038.76 1020.99 1013.21C1022.1 987.66 1027.9 937.12 1027.9 937.12L1151.84 972.24Z" fill="#EE9849"/>
<path d="M974 939.8C974 939.8 972 964.13 970.51 967.86C969.02 971.59 959.18 983.17 958 983C956.82 982.83 956.18 981.92 956.76 979.56C957.34 977.2 960.76 969.92 959.65 970.11C958.54 970.3 947.33 990.81 942.85 989.65C938.37 988.49 934 973.92 936.66 963.65C939.32 953.38 957.41 937.18 958.1 935.52C964 921.43 974 939.8 974 939.8Z" fill="#ED975D"/>
<path d="M965.62 946C974.22 948.76 975.62 948.14 975.62 948.14C975.62 948.14 1017.47 871.94 1021.71 864.96C1025.95 857.98 1110.58 779.51 1110.58 779.51L1088.83 698.41C1088.83 698.41 992.56 823 982.16 840.91C965 870.46 954.92 939.1 954.92 939.1C957.838 942.277 961.522 944.652 965.62 946V946Z" fill="#1E3D70"/>
<path d="M1187.93 811.32C1187.63 827.97 1186.66 846.69 1185.35 865.71L1185.11 869.09C1184.28 880.87 1183.37 892.68 1182.34 904.19C1181.92 908.81 1181.48 913.367 1181.01 917.86L1180.94 918.46C1180.94 920.14 1180.7 921.96 1180.52 923.62C1176.27 966.74 1171.82 1000.82 1171 1001.34C1170.04 1002.02 1168.86 1002.32 1167.69 1002.18C1156.38 1000.76 1122.63 1003.33 1095.01 997.32C1071.7 992.4 1051.62 983.08 1030.35 970.51C1027.53 968.84 1021.09 964.42 1021.62 961.12C1022.13 957.49 1023.08 952.24 1024.29 945.64C1028.48 922.7 1035.71 883.24 1038.18 837.06C1038.66 828.46 1039.36 819.96 1040.27 811.61C1042.39 791.081 1046.16 770.756 1051.54 750.83C1061.01 716.72 1074.93 690.6 1092.39 680.38C1094.67 679.11 1106.95 686.92 1118.22 694.15C1127.72 700.232 1139 702.908 1150.22 701.74L1159.6 712.12C1170.97 725.33 1183.07 742.92 1186.37 767.91C1186.62 769.76 1186.83 771.72 1187.01 773.81C1187.96 786.289 1188.26 798.809 1187.93 811.32V811.32Z" fill="#2A4E96"/>
<path d="M1187.93 811.32C1187.63 827.97 1186.66 846.69 1185.35 865.71L1185.11 869.09C1120.51 828.66 1110.56 754.66 1110.56 754.66C1142.34 756.05 1167.56 763.36 1187.05 773.81C1187.98 786.29 1188.28 798.81 1187.93 811.32V811.32Z" fill="#1E3D70"/>
<path d="M1390.33 743.38C1387 734.38 1381.82 734.95 1381.82 734.95C1381.82 734.95 1285.76 758.89 1277.14 759.95C1268.52 761.01 1173.71 722.95 1173.71 722.95C1173.71 722.95 1136.39 706.2 1118.91 721.49C1103.72 734.78 1103.03 751.61 1106.58 765.75C1108.68 773.982 1113.21 781.39 1119.59 787.008C1125.96 792.625 1133.88 796.191 1142.31 797.24C1180.99 802.17 1258.16 811.44 1274.31 809.19C1310.31 804.19 1391.89 757.09 1391.89 757.09C1392.43 752.461 1391.9 747.769 1390.33 743.38V743.38Z" fill="#2A4E96"/>
<path d="M2337.46 919.43C2337.46 919.43 2350.8 931.8 2348.2 940.59C2345.6 949.38 2333.55 955.23 2331.92 965.98C2330.29 976.73 2323.79 982.58 2317.92 982.58H2290C2290 982.58 2285.68 975.02 2296.1 972.74C2306.52 970.46 2310.44 957.84 2309.79 946.12C2309.14 934.4 2310.79 918.78 2310.79 918.78L2332.92 913.57L2337.46 919.43Z" fill="#2C3A64"/>
<path d="M2171.14 981.11C2169.79 981.79 2165.03 982.26 2158.5 982.57H2095.33C2095.55 980.7 2097.02 974 2107.33 972.33C2119 970.44 2139.21 963.65 2143.71 948.73C2143.86 948.25 2143.99 947.763 2144.1 947.27C2147.68 931.32 2173.72 952.14 2173.72 952.14C2173.72 952.14 2173.8 952.78 2173.91 953.87C2174.54 959.73 2176.08 978.65 2171.14 981.11Z" fill="#2C3A64"/>
<path d="M2110.44 554.54C2110.44 554.54 2114.39 603.88 2119.04 663.19C2125.36 743.75 2132.96 842.72 2133.71 861.46C2135.01 894.02 2140.22 946.09 2140.22 946.09C2140.22 946.09 2152.58 958.46 2177.33 953.25C2177.33 953.25 2199.33 878.91 2205.67 800.25C2205.77 798.96 2205.87 797.66 2205.96 796.37C2211.82 716.3 2220.96 547.7 2220.96 547.7L2110.44 554.54Z" fill="#35488B"/>
<path d="M2110.44 554.54C2110.44 554.54 2114.39 603.88 2119.04 663.19L2205.67 800.26C2205.77 798.97 2205.87 797.67 2205.96 796.38C2211.82 716.31 2220.96 547.71 2220.96 547.71L2110.44 554.54Z" fill="#2C3A64"/>
<path d="M2128.5 560.4C2128.5 560.4 2199.78 739.09 2246.65 823.06C2293.52 907.03 2308.16 930.47 2308.16 930.47C2308.16 930.47 2335.02 919.73 2337.46 912.41C2337.46 912.41 2319.54 750.29 2288.15 710.77C2270.41 688.44 2249.58 621.43 2248.6 597.99C2247.62 574.55 2242.25 528.18 2242.25 528.18L2128.5 560.4Z" fill="#35488B"/>
<path d="M1908.64 463.48C1908.64 463.48 1889.31 459.06 1886.05 459.29C1882.79 459.52 1871.42 464.29 1871.27 465.19C1871.12 466.09 1871.65 466.87 1873.62 467C1875.59 467.13 1882.06 466.3 1881.62 467.09C1881.18 467.88 1862.56 471.53 1862.36 475.29C1862.16 479.05 1872.36 486.02 1881 486.48C1889.64 486.94 1906.6 476.92 1908.06 476.79C1920.43 475.72 1908.64 463.48 1908.64 463.48Z" fill="#FFB27D"/>
<path d="M1900.37 468.39C1897.59 459.56 1898.24 458.16 1898.24 458.16C1898.24 458.16 1976.62 415.78 1983.79 411.48C1990.96 407.18 2072 321 2072 321L2155 343.84C2155 343.84 2026.62 441.63 2008.22 452.16C1977.82 469.56 1907.41 479.41 1907.41 479.41C1904.15 476.404 1901.73 472.608 1900.37 468.39V468.39Z" fill="#E58638"/>
<path d="M2097.1 279.09C2097.1 279.09 2068.02 330.26 2039.59 336.94C2039.59 336.94 2040.77 319.75 2047.69 307.99C2044.86 304.65 2042.37 301.58 2040.21 298.83C2036.44 294.092 2032.91 289.159 2029.66 284.05L2039.3 258.11L2045.85 240.51C2048.73 245.772 2052.16 250.713 2056.08 255.25C2074.71 276.67 2097.1 279.09 2097.1 279.09Z" fill="#FFB27D"/>
<path d="M2056.08 255.25C2056.08 255.25 2059.55 280.9 2040.21 298.83C2036.44 294.092 2032.91 289.159 2029.66 284.05L2039.3 258.11C2049.65 255 2056.08 255.25 2056.08 255.25Z" fill="#ED975D"/>
<path d="M2022 287.83C2022 287.83 2065.46 270.89 2054.49 243.99C2043.52 217.09 2041.75 196.79 2013.49 206.47C1985.23 216.15 1984.11 228.6 1985.58 238.47C1987.05 248.34 2010.41 291.54 2022 287.83Z" fill="#FFB27D"/>
<path d="M2246.47 541.68C2228.94 566.88 2097.88 600.56 2099.47 583.11C2100.52 571.667 2100.52 560.153 2099.47 548.71C2099.14 544.97 2098.68 541.007 2098.08 536.82C2094.75 513.9 2086.84 484.42 2069.2 450.31C2067.87 447.75 2066.49 445.17 2065.07 442.57C2057.88 429.492 2051.8 415.834 2046.9 401.74C2037.82 375.5 2034.16 350.39 2038.74 333.98C2038.74 333.9 2038.74 333.82 2038.81 333.75C2066.21 321.08 2076.81 271.95 2076.81 271.95C2076.81 271.95 2170.27 288.73 2222.63 413.31C2222.59 413.31 2261.72 519.75 2246.47 541.68Z" fill="#EE9849"/>
<path d="M2099.41 548.71C2099.08 544.97 2098.62 541.007 2098.02 536.82C2094.69 513.9 2086.78 484.42 2069.14 450.31C2072.14 431.95 2076.35 416.68 2080.94 409.81C2099.58 381.87 2110.44 377.5 2110.44 377.5C2110.44 377.5 2138.39 495.4 2099.41 548.71Z" fill="#E58638"/>
<path d="M1952.08 520.66C1952.08 520.66 1926.22 522.01 1922.21 523.46C1918.2 524.91 1905.62 534.95 1905.76 536.16C1905.9 537.37 1906.84 538.16 1909.36 537.59C1911.88 537.02 1919.71 533.69 1919.47 534.82C1919.23 535.95 1897.13 547.22 1898.21 552C1899.29 556.78 1914.62 561.9 1925.62 559.4C1936.62 556.9 1954.36 538.25 1956.14 537.57C1971.25 531.8 1952.08 520.66 1952.08 520.66Z" fill="#FFB27D"/>
<path d="M1947.2 530.46C1942.02 522.09 1945.76 518.28 1945.76 518.28C1945.76 518.28 2025.63 455.74 2031.89 449.42C2038.15 443.1 2067.15 342.5 2067.15 342.5C2067.15 342.5 2077.15 301.79 2100.51 297.3C2120.82 293.4 2134.86 303.45 2144.05 315.23C2149.38 322.114 2152.51 330.444 2153.03 339.133C2153.55 347.822 2151.44 356.467 2146.98 363.94C2126.59 398.31 2085.45 466.52 2073.44 478.17C2046.7 504.11 1957.24 540.36 1957.24 540.36C1953.18 537.873 1949.74 534.486 1947.2 530.46V530.46Z" fill="#EE9849"/>
<path d="M2060.72 194C2061.02 193.4 2061.91 192.76 2064.06 192.1C2062.64 191.688 2061.14 191.633 2059.69 191.94C2058.47 188.94 2055.5 183.89 2049.94 183.85C2050.92 184.148 2051.82 184.662 2052.58 185.354C2053.34 186.046 2053.93 186.899 2054.31 187.85C2046.69 183.01 2032.56 181.61 1997.31 193.36C1950.82 208.84 1974.05 235.83 1981.09 237.99C1988.13 240.15 2001.09 226.27 2012.77 224.37C2024.45 222.47 2030.77 238.73 2035.19 240.08C2039.61 241.43 2037.11 237.73 2041.77 234.02C2046.43 230.31 2049.1 239.02 2049 245.15C2048.9 251.28 2058 257.07 2058 257.07L2063.33 247.3C2068.65 237.53 2067.2 202.07 2062.11 195.68C2061.62 195.17 2061.18 194.6 2060.72 194Z" fill="#2B478B"/>
<path d="M2824.21 1523.48H199.58C197.669 1523.48 196.12 1525.03 196.12 1526.94V1529.41C196.12 1531.32 197.669 1532.87 199.58 1532.87H2824.21C2826.12 1532.87 2827.67 1531.32 2827.67 1529.41V1526.94C2827.67 1525.03 2826.12 1523.48 2824.21 1523.48Z" fill="#2E3552"/>
<path d="M1325.96 1431.28V1483.89L1201.44 1431.28H1325.96Z" fill="#4271BC"/>
<path d="M2391.65 982.57H1979.83V1523.48H2391.65V982.57Z" fill="#4A75CB"/>
<path d="M2264.67 982.58H1852.84V1523.49H2264.67V982.58Z" fill="#699DEE"/>
<path d="M2391.65 982.58V1063.46L2264.67 982.58H2391.65Z" fill="#4271BC"/>
</svg>
