<svg width="403" height="263" viewBox="0 0 403 263" fill="none" xmlns="http://www.w3.org/2000/svg">
<path fill-rule="evenodd" clip-rule="evenodd" d="M221.677 262.86C221.657 262.907 221.637 262.953 221.618 263H0L2.66207e-06 39.763C19.5309 32.1675 40.8069 28 63.0772 28C132.971 28 193.125 69.082 220.009 128.069C230.241 124.689 241.193 122.86 252.581 122.86C309.151 122.86 355.009 168.032 355.009 223.755C355.009 237.621 352.168 250.833 347.031 262.86H221.677Z" fill="#DCEDFF"/>
<circle cx="326.65" cy="151.635" r="3.63504" fill="#206CFF"/>
<circle cx="326.65" cy="166.781" r="3.63504" fill="#206CFF"/>
<circle cx="326.65" cy="181.927" r="3.63504" fill="#206CFF"/>
<circle cx="326.65" cy="197.073" r="3.63504" fill="#206CFF"/>
<circle cx="326.65" cy="212.219" r="3.63504" fill="#206CFF"/>
<circle cx="326.65" cy="227.365" r="3.63504" fill="#206CFF"/>
<circle cx="350.883" cy="151.635" r="3.63504" fill="#206CFF"/>
<circle cx="350.883" cy="166.781" r="3.63504" fill="#206CFF"/>
<circle cx="350.883" cy="181.927" r="3.63504" fill="#206CFF"/>
<circle cx="350.883" cy="197.073" r="3.63504" fill="#206CFF"/>
<circle cx="350.883" cy="212.219" r="3.63504" fill="#206CFF"/>
<circle cx="350.883" cy="227.365" r="3.63504" fill="#206CFF"/>
<circle cx="375.116" cy="151.635" r="3.63504" fill="#206CFF"/>
<circle cx="375.116" cy="166.781" r="3.63504" fill="#206CFF"/>
<circle cx="375.116" cy="181.927" r="3.63504" fill="#206CFF"/>
<circle cx="375.116" cy="197.073" r="3.63504" fill="#206CFF"/>
<circle cx="375.116" cy="212.219" r="3.63504" fill="#206CFF"/>
<circle cx="375.116" cy="227.365" r="3.63504" fill="#206CFF"/>
<circle cx="399.351" cy="151.635" r="3.63504" fill="#206CFF"/>
<circle cx="399.351" cy="166.781" r="3.63504" fill="#206CFF"/>
<circle cx="399.351" cy="181.927" r="3.63504" fill="#206CFF"/>
<circle cx="399.351" cy="197.073" r="3.63504" fill="#206CFF"/>
<circle cx="399.351" cy="212.219" r="3.63504" fill="#206CFF"/>
<circle cx="399.351" cy="227.365" r="3.63504" fill="#206CFF"/>
<path d="M146 38.5C146 59.1986 128.999 76 108 76C87.001 76 70 59.1986 70 38.5C70 17.8014 87.001 1 108 1C128.999 1 146 17.8014 146 38.5Z" stroke="#206CFF" stroke-width="2"/>
<ellipse cx="131" cy="9.5" rx="10" ry="9.5" fill="#206CFF"/>
</svg>
