<svg width="1923" height="916" viewBox="0 0 1923 916" fill="none" xmlns="http://www.w3.org/2000/svg">
<path fill-rule="evenodd" clip-rule="evenodd" d="M354.154 187H1922V681H1922.01V904.237C1902.48 911.832 1881.2 916 1858.93 916C1789.04 916 1728.89 874.918 1702 815.931C1691.77 819.311 1680.82 821.14 1669.43 821.14C1622.26 821.14 1582.54 789.738 1570.64 747H161.936C167.146 733.486 170 718.829 170 703.515C170 635.852 114.314 581 45.6225 581C29.5151 581 14.1266 584.014 0 589.506V187H2L2 26.763C21.5309 19.1675 42.8069 15 65.0772 15C134.971 15 195.125 56.082 222.009 115.069C232.241 111.689 243.193 109.86 254.581 109.86C302.844 109.86 343.311 142.74 354.154 187Z" fill="#DCEDFF"/>
<circle cx="298.65" cy="151.635" r="3.63504" fill="#206CFF"/>
<circle cx="298.65" cy="166.781" r="3.63504" fill="#206CFF"/>
<circle cx="298.65" cy="181.927" r="3.63504" fill="#206CFF"/>
<circle cx="298.65" cy="197.073" r="3.63504" fill="#206CFF"/>
<circle cx="298.65" cy="212.219" r="3.63504" fill="#206CFF"/>
<circle cx="298.65" cy="227.365" r="3.63504" fill="#206CFF"/>
<circle cx="322.883" cy="151.635" r="3.63504" fill="#206CFF"/>
<circle cx="322.883" cy="166.781" r="3.63504" fill="#206CFF"/>
<circle cx="322.883" cy="181.927" r="3.63504" fill="#206CFF"/>
<circle cx="322.883" cy="197.073" r="3.63504" fill="#206CFF"/>
<circle cx="322.883" cy="212.219" r="3.63504" fill="#206CFF"/>
<circle cx="322.883" cy="227.365" r="3.63504" fill="#206CFF"/>
<circle cx="347.117" cy="151.635" r="3.63504" fill="#206CFF"/>
<circle cx="347.117" cy="166.781" r="3.63504" fill="#206CFF"/>
<circle cx="347.117" cy="181.927" r="3.63504" fill="#206CFF"/>
<circle cx="347.117" cy="197.073" r="3.63504" fill="#206CFF"/>
<circle cx="347.117" cy="212.219" r="3.63504" fill="#206CFF"/>
<circle cx="347.117" cy="227.365" r="3.63504" fill="#206CFF"/>
<circle cx="371.35" cy="151.635" r="3.63504" fill="#206CFF"/>
<circle cx="371.35" cy="166.781" r="3.63504" fill="#206CFF"/>
<circle cx="371.35" cy="181.927" r="3.63504" fill="#206CFF"/>
<circle cx="371.35" cy="197.073" r="3.63504" fill="#206CFF"/>
<circle cx="371.35" cy="212.219" r="3.63504" fill="#206CFF"/>
<circle cx="371.35" cy="227.365" r="3.63504" fill="#206CFF"/>
<path d="M118 38.5C118 59.1986 100.999 76 80 76C59.001 76 42 59.1986 42 38.5C42 17.8014 59.001 1 80 1C100.999 1 118 17.8014 118 38.5Z" stroke="#206CFF" stroke-width="2"/>
<ellipse cx="103" cy="9.5" rx="10" ry="9.5" fill="#206CFF"/>
<path d="M1660 807.5C1660 828.199 1643 845 1622 845C1601 845 1584 828.199 1584 807.5C1584 786.801 1601 770 1622 770C1643 770 1660 786.801 1660 807.5Z" stroke="#206CFF" stroke-width="2"/>
<ellipse cx="1647" cy="836.5" rx="10" ry="9.5" fill="#206CFF"/>
</svg>
