<svg width="1920" height="246" viewBox="0 0 1920 246" fill="none" xmlns="http://www.w3.org/2000/svg">
<path fill-rule="evenodd" clip-rule="evenodd" d="M221.677 234.86C221.657 234.907 221.637 234.953 221.618 235H0L2.66207e-06 11.763C19.5309 4.16752 40.8069 0 63.0772 0C133.255 1.98534e-06 193.612 41.4156 220.334 100.787C231.161 96.9491 242.832 94.86 255.002 94.86C311.569 94.86 357.426 140.032 357.426 195.755C357.426 209.621 354.585 222.833 349.447 234.86H221.677Z" fill="#DCEDFF"/>
<path d="M1782.69 76C1776.45 90.6041 1773 106.647 1773 123.485C1773 191.148 1828.69 246 1897.38 246C1913.49 246 1928.88 242.985 1943.01 237.491L1943.01 76L1782.69 76Z" fill="#F8F9FA"/>
<circle cx="1679.64" cy="139.635" r="3.63504" fill="#206CFF"/>
<circle cx="1679.64" cy="154.781" r="3.63504" fill="#206CFF"/>
<circle cx="1679.64" cy="169.927" r="3.63504" fill="#206CFF"/>
<circle cx="1679.64" cy="185.073" r="3.63504" fill="#206CFF"/>
<circle cx="1679.64" cy="200.219" r="3.63504" fill="#206CFF"/>
<circle cx="1679.64" cy="215.365" r="3.63504" fill="#206CFF"/>
<circle cx="1703.87" cy="139.635" r="3.63504" fill="#206CFF"/>
<circle cx="1703.87" cy="154.781" r="3.63504" fill="#206CFF"/>
<circle cx="1703.87" cy="169.927" r="3.63504" fill="#206CFF"/>
<circle cx="1703.87" cy="185.073" r="3.63504" fill="#206CFF"/>
<circle cx="1703.87" cy="200.219" r="3.63504" fill="#206CFF"/>
<circle cx="1703.87" cy="215.365" r="3.63504" fill="#206CFF"/>
<circle cx="1728.1" cy="139.635" r="3.63504" fill="#206CFF"/>
<circle cx="1728.1" cy="154.781" r="3.63504" fill="#206CFF"/>
<circle cx="1728.1" cy="169.927" r="3.63504" fill="#206CFF"/>
<circle cx="1728.1" cy="185.073" r="3.63504" fill="#206CFF"/>
<circle cx="1728.1" cy="200.219" r="3.63504" fill="#206CFF"/>
<circle cx="1728.1" cy="215.365" r="3.63504" fill="#206CFF"/>
<circle cx="1752.34" cy="139.635" r="3.63504" fill="#206CFF"/>
<circle cx="1752.34" cy="154.781" r="3.63504" fill="#206CFF"/>
<circle cx="1752.34" cy="169.927" r="3.63504" fill="#206CFF"/>
<circle cx="1752.34" cy="185.073" r="3.63504" fill="#206CFF"/>
<circle cx="1752.34" cy="200.219" r="3.63504" fill="#206CFF"/>
<circle cx="1752.34" cy="215.365" r="3.63504" fill="#206CFF"/>
<circle cx="1679.64" cy="63.635" r="3.63504" fill="#206CFF"/>
<circle cx="1679.64" cy="78.781" r="3.63504" fill="#206CFF"/>
<circle cx="1679.64" cy="93.927" r="3.63504" fill="#206CFF"/>
<circle cx="1679.64" cy="109.073" r="3.63504" fill="#206CFF"/>
<circle cx="1679.64" cy="124.219" r="3.63504" fill="#206CFF"/>
<circle cx="1679.64" cy="139.365" r="3.63504" fill="#206CFF"/>
<circle cx="1703.87" cy="63.635" r="3.63504" fill="#206CFF"/>
<circle cx="1703.87" cy="78.781" r="3.63504" fill="#206CFF"/>
<circle cx="1703.87" cy="93.927" r="3.63504" fill="#206CFF"/>
<circle cx="1703.87" cy="109.073" r="3.63504" fill="#206CFF"/>
<circle cx="1703.87" cy="124.219" r="3.63504" fill="#206CFF"/>
<circle cx="1703.87" cy="139.365" r="3.63504" fill="#206CFF"/>
<circle cx="1728.1" cy="63.635" r="3.63504" fill="#206CFF"/>
<circle cx="1728.1" cy="78.781" r="3.63504" fill="#206CFF"/>
<circle cx="1728.1" cy="93.927" r="3.63504" fill="#206CFF"/>
<circle cx="1728.1" cy="109.073" r="3.63504" fill="#206CFF"/>
<circle cx="1728.1" cy="124.219" r="3.63504" fill="#206CFF"/>
<circle cx="1728.1" cy="139.365" r="3.63504" fill="#206CFF"/>
<circle cx="1752.34" cy="63.635" r="3.63504" fill="#206CFF"/>
<circle cx="1752.34" cy="78.781" r="3.63504" fill="#206CFF"/>
<circle cx="1752.34" cy="93.927" r="3.63504" fill="#206CFF"/>
<circle cx="1752.34" cy="109.073" r="3.63504" fill="#206CFF"/>
<circle cx="1752.34" cy="124.219" r="3.63504" fill="#206CFF"/>
<circle cx="1752.34" cy="139.365" r="3.63504" fill="#206CFF"/>
<circle cx="1606.64" cy="139.635" r="3.63504" fill="#206CFF"/>
<circle cx="1606.64" cy="154.781" r="3.63504" fill="#206CFF"/>
<circle cx="1606.64" cy="169.927" r="3.63504" fill="#206CFF"/>
<circle cx="1606.64" cy="185.073" r="3.63504" fill="#206CFF"/>
<circle cx="1606.64" cy="200.219" r="3.63504" fill="#206CFF"/>
<circle cx="1606.64" cy="215.365" r="3.63504" fill="#206CFF"/>
<circle cx="1630.87" cy="139.635" r="3.63504" fill="#206CFF"/>
<circle cx="1630.87" cy="154.781" r="3.63504" fill="#206CFF"/>
<circle cx="1630.87" cy="169.927" r="3.63504" fill="#206CFF"/>
<circle cx="1630.87" cy="185.073" r="3.63504" fill="#206CFF"/>
<circle cx="1630.87" cy="200.219" r="3.63504" fill="#206CFF"/>
<circle cx="1630.87" cy="215.365" r="3.63504" fill="#206CFF"/>
<circle cx="1655.1" cy="139.635" r="3.63504" fill="#206CFF"/>
<circle cx="1655.1" cy="154.781" r="3.63504" fill="#206CFF"/>
<circle cx="1655.1" cy="169.927" r="3.63504" fill="#206CFF"/>
<circle cx="1655.1" cy="185.073" r="3.63504" fill="#206CFF"/>
<circle cx="1655.1" cy="200.219" r="3.63504" fill="#206CFF"/>
<circle cx="1655.1" cy="215.365" r="3.63504" fill="#206CFF"/>
<circle cx="1679.34" cy="139.635" r="3.63504" fill="#206CFF"/>
<circle cx="1679.34" cy="154.781" r="3.63504" fill="#206CFF"/>
<circle cx="1679.34" cy="169.927" r="3.63504" fill="#206CFF"/>
<circle cx="1679.34" cy="185.073" r="3.63504" fill="#206CFF"/>
<circle cx="1679.34" cy="200.219" r="3.63504" fill="#206CFF"/>
<circle cx="1679.34" cy="215.365" r="3.63504" fill="#206CFF"/>
<circle cx="1606.64" cy="63.635" r="3.63504" fill="#206CFF"/>
<circle cx="1606.64" cy="78.781" r="3.63504" fill="#206CFF"/>
<circle cx="1606.64" cy="93.927" r="3.63504" fill="#206CFF"/>
<circle cx="1606.64" cy="109.073" r="3.63504" fill="#206CFF"/>
<circle cx="1606.64" cy="124.219" r="3.63504" fill="#206CFF"/>
<circle cx="1606.64" cy="139.365" r="3.63504" fill="#206CFF"/>
<circle cx="1630.87" cy="63.635" r="3.63504" fill="#206CFF"/>
<circle cx="1630.87" cy="78.781" r="3.63504" fill="#206CFF"/>
<circle cx="1630.87" cy="93.927" r="3.63504" fill="#206CFF"/>
<circle cx="1630.87" cy="109.073" r="3.63504" fill="#206CFF"/>
<circle cx="1630.87" cy="124.219" r="3.63504" fill="#206CFF"/>
<circle cx="1630.87" cy="139.365" r="3.63504" fill="#206CFF"/>
<circle cx="1655.1" cy="63.635" r="3.63504" fill="#206CFF"/>
<circle cx="1655.1" cy="78.781" r="3.63504" fill="#206CFF"/>
<circle cx="1655.1" cy="93.927" r="3.63504" fill="#206CFF"/>
<circle cx="1655.1" cy="109.073" r="3.63504" fill="#206CFF"/>
<circle cx="1655.1" cy="124.219" r="3.63504" fill="#206CFF"/>
<circle cx="1655.1" cy="139.365" r="3.63504" fill="#206CFF"/>
<circle cx="1679.34" cy="63.635" r="3.63504" fill="#206CFF"/>
<circle cx="1679.34" cy="78.781" r="3.63504" fill="#206CFF"/>
<circle cx="1679.34" cy="93.927" r="3.63504" fill="#206CFF"/>
<circle cx="1679.34" cy="109.073" r="3.63504" fill="#206CFF"/>
<circle cx="1679.34" cy="124.219" r="3.63504" fill="#206CFF"/>
<circle cx="1679.34" cy="139.365" r="3.63504" fill="#206CFF"/>
</svg>
