<svg width="1920" height="259" viewBox="0 0 1920 259" fill="none" xmlns="http://www.w3.org/2000/svg">
<path fill-rule="evenodd" clip-rule="evenodd" d="M1700.34 24.14C1700.36 24.0933 1700.38 24.0466 1700.4 24L1922.01 24L1922.01 247.237C1902.48 254.832 1881.2 259 1858.94 259C1789.04 259 1728.89 217.917 1702.01 158.928C1691.77 162.31 1680.82 164.14 1669.43 164.14C1612.86 164.14 1567 118.968 1567 63.2452C1567 49.3786 1569.84 36.1669 1574.98 24.14L1700.34 24.14Z" fill="#DCEDFF"/>
<circle cx="230.635" cy="80.635" r="3.63504" fill="#206CFF"/>
<circle cx="230.635" cy="95.781" r="3.63504" fill="#206CFF"/>
<circle cx="230.635" cy="110.927" r="3.63504" fill="#206CFF"/>
<circle cx="230.635" cy="126.073" r="3.63504" fill="#206CFF"/>
<circle cx="230.635" cy="141.219" r="3.63504" fill="#206CFF"/>
<circle cx="230.635" cy="156.365" r="3.63504" fill="#206CFF"/>
<circle cx="254.868" cy="80.635" r="3.63504" fill="#206CFF"/>
<circle cx="254.868" cy="95.781" r="3.63504" fill="#206CFF"/>
<circle cx="254.868" cy="110.927" r="3.63504" fill="#206CFF"/>
<circle cx="254.868" cy="126.073" r="3.63504" fill="#206CFF"/>
<circle cx="254.868" cy="141.219" r="3.63504" fill="#206CFF"/>
<circle cx="254.868" cy="156.365" r="3.63504" fill="#206CFF"/>
<circle cx="279.102" cy="80.635" r="3.63504" fill="#206CFF"/>
<circle cx="279.102" cy="95.781" r="3.63504" fill="#206CFF"/>
<circle cx="279.102" cy="110.927" r="3.63504" fill="#206CFF"/>
<circle cx="279.102" cy="126.073" r="3.63504" fill="#206CFF"/>
<circle cx="279.102" cy="141.219" r="3.63504" fill="#206CFF"/>
<circle cx="279.102" cy="156.365" r="3.63504" fill="#206CFF"/>
<circle cx="303.336" cy="80.635" r="3.63504" fill="#206CFF"/>
<circle cx="303.336" cy="95.781" r="3.63504" fill="#206CFF"/>
<circle cx="303.336" cy="110.927" r="3.63504" fill="#206CFF"/>
<circle cx="303.336" cy="126.073" r="3.63504" fill="#206CFF"/>
<circle cx="303.336" cy="141.219" r="3.63504" fill="#206CFF"/>
<circle cx="303.336" cy="156.365" r="3.63504" fill="#206CFF"/>
<circle cx="230.635" cy="4.63504" r="3.63504" fill="#206CFF"/>
<circle cx="230.635" cy="19.781" r="3.63504" fill="#206CFF"/>
<circle cx="230.635" cy="34.927" r="3.63504" fill="#206CFF"/>
<circle cx="230.635" cy="50.073" r="3.63504" fill="#206CFF"/>
<circle cx="230.635" cy="65.219" r="3.63504" fill="#206CFF"/>
<circle cx="230.635" cy="80.365" r="3.63504" fill="#206CFF"/>
<circle cx="254.868" cy="4.63504" r="3.63504" fill="#206CFF"/>
<circle cx="254.868" cy="19.781" r="3.63504" fill="#206CFF"/>
<circle cx="254.868" cy="34.927" r="3.63504" fill="#206CFF"/>
<circle cx="254.868" cy="50.073" r="3.63504" fill="#206CFF"/>
<circle cx="254.868" cy="65.219" r="3.63504" fill="#206CFF"/>
<circle cx="254.868" cy="80.365" r="3.63504" fill="#206CFF"/>
<circle cx="279.102" cy="4.63504" r="3.63504" fill="#206CFF"/>
<circle cx="279.102" cy="19.781" r="3.63504" fill="#206CFF"/>
<circle cx="279.102" cy="34.927" r="3.63504" fill="#206CFF"/>
<circle cx="279.102" cy="50.073" r="3.63504" fill="#206CFF"/>
<circle cx="279.102" cy="65.219" r="3.63504" fill="#206CFF"/>
<circle cx="279.102" cy="80.365" r="3.63504" fill="#206CFF"/>
<circle cx="303.336" cy="4.63504" r="3.63504" fill="#206CFF"/>
<circle cx="303.336" cy="19.781" r="3.63504" fill="#206CFF"/>
<circle cx="303.336" cy="34.927" r="3.63504" fill="#206CFF"/>
<circle cx="303.336" cy="50.073" r="3.63504" fill="#206CFF"/>
<circle cx="303.336" cy="65.219" r="3.63504" fill="#206CFF"/>
<circle cx="303.336" cy="80.365" r="3.63504" fill="#206CFF"/>
<circle cx="157.635" cy="80.635" r="3.63504" fill="#206CFF"/>
<circle cx="157.635" cy="95.781" r="3.63504" fill="#206CFF"/>
<circle cx="157.635" cy="110.927" r="3.63504" fill="#206CFF"/>
<circle cx="157.635" cy="126.073" r="3.63504" fill="#206CFF"/>
<circle cx="157.635" cy="141.219" r="3.63504" fill="#206CFF"/>
<circle cx="157.635" cy="156.365" r="3.63504" fill="#206CFF"/>
<circle cx="181.868" cy="80.635" r="3.63504" fill="#206CFF"/>
<circle cx="181.868" cy="95.781" r="3.63504" fill="#206CFF"/>
<circle cx="181.868" cy="110.927" r="3.63504" fill="#206CFF"/>
<circle cx="181.868" cy="126.073" r="3.63504" fill="#206CFF"/>
<circle cx="181.868" cy="141.219" r="3.63504" fill="#206CFF"/>
<circle cx="181.868" cy="156.365" r="3.63504" fill="#206CFF"/>
<circle cx="206.102" cy="80.635" r="3.63504" fill="#206CFF"/>
<circle cx="206.102" cy="95.781" r="3.63504" fill="#206CFF"/>
<circle cx="206.102" cy="110.927" r="3.63504" fill="#206CFF"/>
<circle cx="206.102" cy="126.073" r="3.63504" fill="#206CFF"/>
<circle cx="206.102" cy="141.219" r="3.63504" fill="#206CFF"/>
<circle cx="206.102" cy="156.365" r="3.63504" fill="#206CFF"/>
<circle cx="230.336" cy="80.635" r="3.63504" fill="#206CFF"/>
<circle cx="230.336" cy="95.781" r="3.63504" fill="#206CFF"/>
<circle cx="230.336" cy="110.927" r="3.63504" fill="#206CFF"/>
<circle cx="230.336" cy="126.073" r="3.63504" fill="#206CFF"/>
<circle cx="230.336" cy="141.219" r="3.63504" fill="#206CFF"/>
<circle cx="230.336" cy="156.365" r="3.63504" fill="#206CFF"/>
<circle cx="157.635" cy="4.63504" r="3.63504" fill="#206CFF"/>
<circle cx="157.635" cy="19.781" r="3.63504" fill="#206CFF"/>
<circle cx="157.635" cy="34.927" r="3.63504" fill="#206CFF"/>
<circle cx="157.635" cy="50.073" r="3.63504" fill="#206CFF"/>
<circle cx="157.635" cy="65.219" r="3.63504" fill="#206CFF"/>
<circle cx="157.635" cy="80.365" r="3.63504" fill="#206CFF"/>
<circle cx="181.868" cy="4.63504" r="3.63504" fill="#206CFF"/>
<circle cx="181.868" cy="19.781" r="3.63504" fill="#206CFF"/>
<circle cx="181.868" cy="34.927" r="3.63504" fill="#206CFF"/>
<circle cx="181.868" cy="50.073" r="3.63504" fill="#206CFF"/>
<circle cx="181.868" cy="65.219" r="3.63504" fill="#206CFF"/>
<circle cx="181.868" cy="80.365" r="3.63504" fill="#206CFF"/>
<circle cx="206.102" cy="4.63504" r="3.63504" fill="#206CFF"/>
<circle cx="206.102" cy="19.781" r="3.63504" fill="#206CFF"/>
<circle cx="206.102" cy="34.927" r="3.63504" fill="#206CFF"/>
<circle cx="206.102" cy="50.073" r="3.63504" fill="#206CFF"/>
<circle cx="206.102" cy="65.219" r="3.63504" fill="#206CFF"/>
<circle cx="206.102" cy="80.365" r="3.63504" fill="#206CFF"/>
<circle cx="230.336" cy="4.63504" r="3.63504" fill="#206CFF"/>
<circle cx="230.336" cy="19.781" r="3.63504" fill="#206CFF"/>
<circle cx="230.336" cy="34.927" r="3.63504" fill="#206CFF"/>
<circle cx="230.336" cy="50.073" r="3.63504" fill="#206CFF"/>
<circle cx="230.336" cy="65.219" r="3.63504" fill="#206CFF"/>
<circle cx="230.336" cy="80.365" r="3.63504" fill="#206CFF"/>
<path d="M43 38.5C43 17.8014 60.001 0.999995 81 0.999997C101.999 0.999998 119 17.8014 119 38.5C119 59.1986 101.999 76 81 76C60.001 76 43 59.1985 43 38.5Z" stroke="#206CFF" stroke-width="2"/>
<ellipse cx="110" cy="12.5" rx="10" ry="9.5" transform="rotate(-180 110 12.5)" fill="#206CFF"/>
</svg>
