<svg xmlns="http://www.w3.org/2000/svg" xmlns:xlink="http://www.w3.org/1999/xlink" viewBox="0 0 647.32 139.71"><defs><style>.cls-1{fill:url(#Dégradé_sans_nom_20);}.cls-2{fill:url(#Dégradé_sans_nom_22);}.cls-3{fill:url(#Dégradé_sans_nom_22-2);}.cls-4{fill:url(#Dégradé_sans_nom_20-2);}.cls-5{fill:#195795;}.cls-6{fill:#da599a;}</style><linearGradient id="Dégradé_sans_nom_20" x1="-197.63" y1="290.3" x2="-251.19" y2="290.3" gradientTransform="translate(342.96 251.2) rotate(90)" gradientUnits="userSpaceOnUse"><stop offset="0" stop-color="#006ba4"/><stop offset="0.23" stop-color="#0e609c"/><stop offset="0.52" stop-color="#165997"/><stop offset="1" stop-color="#195795"/></linearGradient><linearGradient id="Dégradé_sans_nom_22" x1="448.41" y1="550.42" x2="394.85" y2="550.42" gradientTransform="translate(534.25 603.04) rotate(180)" gradientUnits="userSpaceOnUse"><stop offset="0" stop-color="#dd7fb0"/><stop offset="0.12" stop-color="#dc72a9"/><stop offset="0.33" stop-color="#db64a0"/><stop offset="0.58" stop-color="#da5c9b"/><stop offset="1" stop-color="#da599a"/></linearGradient><linearGradient id="Dégradé_sans_nom_22-2" x1="53.56" y1="85.92" x2="0" y2="85.92" gradientTransform="matrix(1, 0, 0, 1, 0, 0)" xlink:href="#Dégradé_sans_nom_22"/><linearGradient id="Dégradé_sans_nom_20-2" x1="861.63" y1="-257.65" x2="808.08" y2="-257.65" gradientTransform="translate(344.44 947.49) rotate(-90)" xlink:href="#Dégradé_sans_nom_20"/></defs><title>Fichier 2</title><g id="Calque_2" data-name="Calque 2"><g id="Calque_1-2" data-name="Calque 1"><path class="cls-1" d="M52.66,25.56a63.3,63.3,0,0,1,52.58,28c0-.32,0-.63,0-1a52.6,52.6,0,0,0-105.2,0c0,.32,0,.63,0,1A63.3,63.3,0,0,1,52.66,25.56Z"/><path class="cls-2" d="M113.85,52.62a63.3,63.3,0,0,1-28,52.58l1,0A52.6,52.6,0,0,0,86.79,0l-1,0A63.3,63.3,0,0,1,113.85,52.62Z"/><path class="cls-3" d="M25.54,85.92a63.25,63.25,0,0,1,28-52.57l-1,0a52.61,52.61,0,0,0,0,105.21l1,0A63.27,63.27,0,0,1,25.54,85.92Z"/><path class="cls-4" d="M86.79,113.87a63.3,63.3,0,0,1-52.58-28c0,.31,0,.63,0,1a52.6,52.6,0,0,0,105.2,0c0-.32,0-.64,0-1A63.3,63.3,0,0,1,86.79,113.87Z"/><circle class="cls-5" cx="70.36" cy="68.04" r="25.77"/><path class="cls-5" d="M178.17,12.92h23.31V118.73h65.64v19.72h-89Z"/><path class="cls-5" d="M284.52,23.05a12.6,12.6,0,0,1-4.13-9.59,12.61,12.61,0,0,1,4.13-9.6A14.37,14.37,0,0,1,294.74,0,14.81,14.81,0,0,1,305,3.68a11.86,11.86,0,0,1,4.13,9.24,13.53,13.53,0,0,1-4,10,14,14,0,0,1-10.31,4A14.37,14.37,0,0,1,284.52,23.05Zm-1.08,19.63h22.42v95.77H283.44Z"/><path class="cls-5" d="M413.37,47.71a44,44,0,0,1,17.31,17.22Q437,76,437,90.57a51.87,51.87,0,0,1-6.27,25.74,43.84,43.84,0,0,1-17.31,17.3,50.8,50.8,0,0,1-25,6.1,46.33,46.33,0,0,1-18-3.41,34.65,34.65,0,0,1-13.72-10.22v12.37H335.27V5.39h22.41v49a37.65,37.65,0,0,1,13.55-9.5,44.17,44.17,0,0,1,17.12-3.23A50.91,50.91,0,0,1,413.37,47.71Zm-7.17,64.56q8-8.25,8-21.7t-8-21.7q-8-8.25-20.36-8.25a28.87,28.87,0,0,0-14.53,3.68,26.53,26.53,0,0,0-10.22,10.49,32.08,32.08,0,0,0-3.76,15.78,32.08,32.08,0,0,0,3.76,15.78,26.62,26.62,0,0,0,10.22,10.5,28.87,28.87,0,0,0,14.53,3.67Q398.22,120.52,406.2,112.27Z"/><path class="cls-5" d="M548,97.74H472.82a26,26,0,0,0,10.31,16.77q8.34,6.18,20.72,6.19,15.78,0,26-10.4l12,13.81a40.52,40.52,0,0,1-16.33,11.65,59.18,59.18,0,0,1-22.23,4q-15.78,0-27.8-6.28A45.15,45.15,0,0,1,457,116a49.41,49.41,0,0,1-6.55-25.38,50.15,50.15,0,0,1,6.37-25.2,45.11,45.11,0,0,1,17.66-17.48,51.48,51.48,0,0,1,25.47-6.28,50.18,50.18,0,0,1,25,6.19,43.81,43.81,0,0,1,17.22,17.4q6.18,11.2,6.18,25.91Q548.32,93.44,548,97.74ZM481.69,65.91a26.83,26.83,0,0,0-9.05,16.94H527A26.43,26.43,0,0,0,518.2,66q-7.37-6.47-18.3-6.45A27.1,27.1,0,0,0,481.69,65.91ZM508.51,5h26.36l-31.2,24.57H484.3Z"/><path class="cls-6" d="M636.11,51.75q11.19,10.13,11.21,30.57v56.13H626.15V126.8a26.13,26.13,0,0,1-11.74,9.59q-7.63,3.31-18.39,3.32A45.06,45.06,0,0,1,577.19,136a29.05,29.05,0,0,1-12.47-10.22A26,26,0,0,1,560.33,111q0-12.93,9.6-20.72t30.22-7.8H624.9V81.07q0-10-6-15.43T601,60.26a51.7,51.7,0,0,0-15.87,2.51,39.28,39.28,0,0,0-13.18,7l-8.78-16.31a54.39,54.39,0,0,1,18.11-8.79,80.27,80.27,0,0,1,22.42-3Q624.89,41.61,636.11,51.75Zm-20.45,67.78a21.06,21.06,0,0,0,9.24-11V97.38H601.76q-19.37,0-19.37,12.74a11.39,11.39,0,0,0,4.85,9.68q4.83,3.6,13.45,3.59A28.83,28.83,0,0,0,615.66,119.53Z"/></g></g></svg>