<svg width="607" height="284" viewBox="0 0 607 284" fill="none" xmlns="http://www.w3.org/2000/svg">
<path d="M33.6421 90.0322V255.756H105.151V281.161H0V90.0322H33.6421Z" fill="#206CFF"/>
<path d="M138.19 116.853C126.04 116.853 119.243 108.385 119.243 97.9239C119.243 86.3356 126.013 77.8672 139.029 77.8672C150.891 77.8672 157.687 85.785 157.687 97.0588C157.687 108.332 150.891 116.853 138.19 116.853ZM122.366 140.581H154.564V247.576C154.564 256.044 157.11 258.587 162.489 258.587C165.324 258.587 169.837 258.011 169.837 258.011L173.222 278.33C173.222 278.33 166.452 282.288 153.147 282.288C133.361 282.288 122.339 269.022 122.339 250.381V140.581H122.366Z" fill="#206CFF"/>
<path d="M228.042 76.4778V162.604C234.812 147.345 246.7 138.326 265.909 138.326C301.23 138.326 317.894 165.986 317.894 208.354C317.894 251.273 290.471 282.892 250.347 282.892C227.727 282.892 195.817 274.712 195.817 274.712V82.1408L228.042 76.4778ZM228.042 257.46C231.427 258.299 240.48 260.292 246.7 260.292C274.962 260.292 283.15 239.684 283.15 211.159C283.15 184.889 281.181 160.9 260.529 160.9C241.871 160.9 228.042 188.848 228.042 216.508V257.46Z" fill="#206CFF"/>
<path d="M452.987 177.286C452.987 204.395 421.628 227.545 371.873 228.096C373.841 245.61 380.927 260.003 403.232 260.003C419.633 260.003 443.356 250.119 443.356 250.119L451.832 270.176C451.832 270.176 427.243 283.154 398.692 283.154C355.183 283.154 337.654 255.494 337.654 214.253C337.654 163.993 367.333 137.172 405.751 137.172C439.42 137.198 452.987 154.686 452.987 177.286ZM420.788 177.286C420.788 166.274 413.729 159.221 403.258 159.221C378.381 159.221 371.611 184.627 371.033 207.777C406.932 206.361 420.788 190.552 420.788 177.286Z" fill="#206CFF"/>
<path d="M607 273.27L581.861 283.442C581.861 283.442 568.871 271.592 567.454 248.703C561.234 271.303 547.379 282.865 523.367 282.865C488.046 282.865 471.382 255.205 471.382 212.837C471.382 169.918 498.805 138.3 538.929 138.3C561.549 138.3 590.914 145.929 593.459 146.48V213.152C593.433 257.749 607 273.27 607 273.27ZM561.234 164.019C557.561 162.892 548.507 160.926 542.576 160.926C514.314 160.926 506.127 181.533 506.127 210.058C506.127 236.329 508.095 260.318 528.747 260.318C547.405 260.318 561.234 232.37 561.234 204.71V164.019Z" fill="#E7247E"/>
<path d="M472.904 0C453.722 40.4543 430.891 56.8405 412.312 63.9194C395.911 70.1592 379.562 69.0581 370.378 82.5603C361.534 95.5906 364.578 113.943 367.806 120.157C368.252 119.292 368.803 118.505 369.433 117.745C369.721 117.378 370.036 117.011 370.378 116.696C370.929 116.119 371.558 115.569 372.241 115.202C373.632 107.834 376.098 96.4296 385.388 89.4294C396.357 81.1708 405.463 88.2758 425.853 83.4517C434.985 81.3018 461.568 75.0358 473.482 53.1176C485.789 30.5439 475.056 4.87654 472.904 0Z" fill="#E7247E"/>
<path d="M426.351 67.3277C411.367 69.0057 398.351 68.8746 387.435 78.2082C375.993 87.9875 372.634 103.246 371.742 115.543C372.188 115.254 372.634 115.018 373.159 114.887C380.349 110.666 411.393 119.239 428.556 122.149C447.896 125.427 460.02 112.632 460.02 112.632C446.584 115.726 427.926 106.314 427.926 106.314C469.572 112.868 480.803 83.1109 480.803 83.1109C473.875 94.673 431.836 89.2197 432.046 87.2271C432.072 87.0961 433.804 86.7814 434.46 86.6766C462.119 81.8 480.908 66.1741 480.908 66.1741C483.48 63.998 486.288 61.3238 489.122 58.1514C492.376 54.5071 494.921 50.9677 496.942 47.7953C467.892 60.5897 443.697 65.3876 426.351 67.3277Z" fill="#206CFF"/>
</svg>
